<svg width="99" height="99" viewBox="0 0 99 99" fill="none" xmlns="http://www.w3.org/2000/svg">
<path d="M99 40.0577V58.9423C99 60.3639 97.8481 61.5175 96.4248 61.5175H61.5177V96.4245C61.5177 97.8481 60.3641 98.9997 58.9425 98.9997H40.0578C38.637 98.9997 37.4826 97.8479 37.4826 96.4245V61.5175H2.5752C1.15244 61.5175 0 60.3639 0 58.9423V40.0577C0 38.6358 1.15244 37.4825 2.5752 37.4825H37.4826V2.57519C37.4826 1.15187 38.6368 0 40.0578 0H58.9425C60.3641 0 61.5177 1.15187 61.5177 2.57519V37.4825H96.4248C97.8484 37.4825 99 38.6358 99 40.0577Z" fill="#E64B52"/>
</svg>
