<svg width="66" height="32" viewBox="0 0 66 32" fill="none" xmlns="http://www.w3.org/2000/svg">
<path d="M0.756165 14.1751C0.756935 14.1743 0.757584 14.1734 0.758484 14.1726L14.2297 0.766366C15.2389 -0.237942 16.8713 -0.234205 17.8758 0.775131C18.8803 1.78434 18.8764 3.41668 17.8672 4.42111L8.8226 13.4219H63.4219C64.8458 13.4219 66 14.5761 66 16C66 17.4239 64.8458 18.5781 63.4219 18.5781H8.82273L17.8671 27.5789C18.8763 28.5833 18.8801 30.2156 17.8757 31.2248C16.8711 32.2343 15.2387 32.2378 14.2296 31.2336L0.758354 17.8274C0.757584 17.8266 0.756935 17.8257 0.756035 17.8249C-0.253685 16.8171 -0.250465 15.1795 0.756165 14.1751Z" fill="#091836"/>
</svg>
