<svg width="25" height="25" viewBox="0 0 25 25" fill="none" xmlns="http://www.w3.org/2000/svg">
<path d="M23.3346 11.9618C22.6216 11.2298 22.4626 10.1177 22.9416 9.2123C23.2836 8.56703 23.3076 7.79975 23.0056 7.1333C22.7046 6.46785 22.1126 5.98188 21.4046 5.82056C20.4136 5.5937 19.6826 4.74475 19.6016 3.72239C19.5426 2.99343 19.1506 2.33302 18.5396 1.93779C17.9306 1.54155 17.1726 1.45585 16.4896 1.7069C15.5336 2.05676 14.4636 1.73917 13.8476 0.924501C13.4076 0.343749 12.7236 0.00195312 11.9976 0.00195312C11.2726 0.00195312 10.5886 0.343749 10.1486 0.924501C9.53558 1.74017 8.46558 2.05777 7.50958 1.70791C6.82758 1.45786 6.06958 1.54357 5.45958 1.9388C4.84958 2.33403 4.45658 2.99443 4.39858 3.7234C4.31658 4.74576 3.58658 5.59572 2.59558 5.82156C1.88758 5.98288 1.29558 6.46886 0.994581 7.1343C0.693581 7.79975 0.717581 8.56803 1.05958 9.2123C1.53858 10.1167 1.37958 11.2298 0.66758 11.9618C0.15858 12.4831 -0.0794195 13.214 0.0235805 13.938C0.126581 14.6619 0.559581 15.2961 1.19358 15.652C2.08158 16.1511 2.54558 17.1744 2.33758 18.1777C2.19058 18.8935 2.38158 19.6376 2.85658 20.1901C3.33258 20.7436 4.03658 21.0411 4.75858 20.9947C5.77458 20.9312 6.71158 21.5392 7.07558 22.496C7.33458 23.1796 7.89558 23.7008 8.59258 23.9065C9.28758 24.1122 10.0396 23.9791 10.6236 23.5466C11.4426 22.9386 12.5596 22.9386 13.3776 23.5466C13.9616 23.9801 14.7136 24.1132 15.4086 23.9065C16.1056 23.7008 16.6666 23.1786 16.9266 22.496C17.2896 21.5392 18.2276 20.9302 19.2426 20.9947C19.9666 21.0411 20.6696 20.7436 21.1446 20.1901C21.6196 19.6376 21.8116 18.8935 21.6636 18.1777C21.4566 17.1744 21.9196 16.1511 22.8086 15.652C23.4416 15.2951 23.8736 14.6619 23.9776 13.938C24.0816 13.214 23.8426 12.4831 23.3346 11.9618ZM10.7506 17.4366L6.25058 13.0366L8.10758 11.1643L10.7506 13.6909L16.3936 7.85923L18.2506 9.73155L10.7506 17.4366Z" fill="#4B5E93"/>
</svg>
