<svg width="298" height="609" viewBox="0 0 298 609" fill="none" xmlns="http://www.w3.org/2000/svg">
<path d="M444 278.173V0.895264H0V278.173C0 481.342 222 608.386 222 608.386C222 608.386 444 481.342 444 278.173ZM222 583.683C189.014 563.013 22.5142 451.094 22.5142 278.173V22.5734H421.486V278.173C421.486 450.589 254.986 562.509 222 583.683Z" fill="#02112E"/>
<path d="M240.84 488.392H260.213C258.118 509.062 242.411 518.641 223.562 518.641C199.477 518.641 183.77 502.508 183.77 480.326C183.77 455.119 201.048 439.994 223.562 439.994C243.458 439.994 257.595 449.573 259.689 469.235H239.793C238.222 460.664 232.986 456.127 224.086 456.127C212.567 456.127 205.76 464.193 205.76 478.813C205.76 495.954 212.567 503.012 224.609 503.012C232.986 503.012 239.793 497.971 240.84 488.392Z" fill="#02112E"/>
<path d="M339.788 231.285C317.274 231.285 298.425 245.401 287.953 256.492H249.208L293.189 214.144C308.373 214.649 331.934 211.624 348.165 196.5C373.821 172.301 365.444 129.449 365.444 129.449C365.444 129.449 321.462 121.382 295.807 146.085C280.099 160.705 277.481 183.896 277.481 199.02L233.5 241.368V170.788C243.972 160.705 259.679 142.556 259.679 120.878C259.679 86.5968 221.981 61.8938 221.981 61.8938C221.981 61.8938 184.807 87.1009 184.807 120.878C184.807 142.556 199.467 160.705 210.986 170.788V241.368L167.005 199.02C167.005 184.4 164.387 161.21 148.679 146.085C123.024 121.382 79.0426 129.449 79.0426 129.449C79.0426 129.449 70.6653 172.301 95.7974 196.5C111.505 211.624 135.59 214.649 151.297 214.144L195.279 256.492H156.533C145.538 245.905 126.689 231.285 104.698 231.285C68.571 231.285 42.9153 267.583 42.9153 267.583C42.9153 267.583 69.0945 303.377 104.698 303.377C127.212 303.377 146.062 289.261 156.533 278.17H207.321L196.326 351.775C193.184 372.445 177.477 379.503 173.288 381.015H159.151V402.693H285.335V381.015H270.675C266.486 379.503 250.779 372.445 247.637 351.775L236.642 278.17H287.953C298.425 288.757 316.75 303.377 339.788 303.377C374.345 303.377 401.571 267.583 401.571 267.583C401.571 267.583 374.868 231.285 339.788 231.285ZM311.514 161.21C320.415 152.639 334.552 150.118 343.977 149.614C343.453 158.689 340.835 172.805 331.934 180.871C323.033 189.442 308.896 191.962 299.472 192.466C299.995 183.392 302.09 169.276 311.514 161.21ZM110.981 180.871C102.08 172.301 99.9861 158.689 99.4625 149.614C108.887 150.118 123.024 152.639 131.925 161.21C140.826 169.78 142.92 183.392 143.444 192.466C134.019 191.962 119.882 189.442 110.981 180.871ZM103.651 281.195C91.0851 281.195 79.0427 273.129 72.2361 267.079C79.0427 260.525 91.0851 252.963 103.651 252.963C116.217 252.963 127.736 261.03 135.066 267.079C127.736 273.633 116.217 281.195 103.651 281.195ZM206.797 120.374C206.797 108.275 215.698 97.1837 221.458 90.1257C228.264 97.1837 236.118 108.275 236.118 120.374C236.118 132.978 227.741 144.069 221.458 151.127C215.175 144.069 206.797 132.474 206.797 120.374ZM221.458 381.015H206.797C216.745 366.899 216.745 354.8 219.887 330.097H223.028C226.17 354.8 225.646 366.899 236.118 381.015H221.458ZM339.788 281.195C327.222 281.195 315.18 273.129 308.373 267.079C315.18 261.03 327.222 252.963 339.788 252.963C352.354 252.963 363.873 261.03 371.203 267.079C363.873 273.633 352.354 281.195 339.788 281.195Z" fill="#02112E"/>
</svg>
