<svg width="33" height="25" viewBox="0 0 33 25" fill="none" xmlns="http://www.w3.org/2000/svg">
<path d="M29.0937 1H3.90627C2.30365 1 1 2.28963 1 3.87502V21.125C1 22.7104 2.30365 24 3.90627 24H29.0937C30.6963 24 32 22.7104 32 21.125V3.87502C32 2.28963 30.6963 1 29.0937 1ZM29.0937 2.91666C29.2253 2.91666 29.3506 2.94367 29.465 2.99085L16.5 14.1069L3.5349 2.99085C3.64937 2.94373 3.77458 2.91666 3.90621 2.91666H29.0937ZM29.0937 22.0833H3.90627C3.37176 22.0833 2.93749 21.6537 2.93749 21.1249V5.01582L15.8652 16.0993C16.0478 16.2556 16.2739 16.3333 16.5 16.3333C16.7261 16.3333 16.9522 16.2557 17.1348 16.0993L30.0625 5.01582V21.125C30.0624 21.6537 29.6282 22.0833 29.0937 22.0833Z" fill="#4B5E93" stroke="#4B5E93" stroke-width="0.75" stroke-linejoin="round"/>
</svg>
