<svg width="111" height="111" viewBox="0 0 111 111" fill="none" xmlns="http://www.w3.org/2000/svg">
<path d="M108 55.5C108 84.495 84.495 108 55.5 108C26.5051 108 3 84.495 3 55.5C3 26.5051 26.5051 3 55.5 3C84.495 3 108 26.5051 108 55.5Z" stroke="#091836" stroke-width="6"/>
<path d="M33 81C33 81 54.2696 63 78 81" stroke="#091836" stroke-width="6" stroke-linecap="round"/>
<path d="M39 49C42.866 49 46 45.866 46 42C46 38.134 42.866 35 39 35C35.134 35 32 38.134 32 42C32 45.866 35.134 49 39 49Z" fill="#091836"/>
<path d="M72 49C75.866 49 79 45.866 79 42C79 38.134 75.866 35 72 35C68.134 35 65 38.134 65 42C65 45.866 68.134 49 72 49Z" fill="#091836"/>
</svg>
