<svg width="14" height="25" viewBox="0 0 14 25" fill="none" xmlns="http://www.w3.org/2000/svg">
<path d="M13.0072 0.00520167L9.76525 0C6.12308 0 3.76935 2.41487 3.76935 6.15253V8.98926H0.509758C0.228091 8.98926 0 9.21762 0 9.49929V13.6094C0 13.8911 0.228351 14.1191 0.509758 14.1191H3.76935V24.4902C3.76935 24.7719 3.99744 25 4.27911 25H8.53195C8.81362 25 9.04171 24.7716 9.04171 24.4902V14.1191H12.8529C13.1346 14.1191 13.3627 13.8911 13.3627 13.6094L13.3642 9.49929C13.3642 9.36404 13.3104 9.23452 13.215 9.13881C13.1195 9.0431 12.9895 8.98926 12.8542 8.98926H9.04171V6.58453C9.04171 5.42872 9.31713 4.84197 10.8227 4.84197L13.0066 4.84119C13.288 4.84119 13.5161 4.61284 13.5161 4.33143V0.514965C13.5161 0.233815 13.2883 0.00572184 13.0072 0.00520167Z" fill="#4B5E93"/>
</svg>
