<svg width="45" height="45" viewBox="0 0 45 45" fill="none" xmlns="http://www.w3.org/2000/svg">
<path fill-rule="evenodd" clip-rule="evenodd" d="M4.5 0H40.5C42.975 0 45 2.0265 45 4.5V40.5C45 42.972 42.975 45 40.5 45H4.5C2.025 45 0 42.972 0 40.5V4.5C0 2.0265 2.025 0 4.5 0ZM5.25 39.603H12.144V33.471H5.25V39.603ZM5.25 31.4145H12.144V25.2855H5.25V31.4145ZM14.451 39.603H21.3435V33.471H14.451V39.603ZM14.451 31.4145H21.3435V25.2855H14.451V31.4145ZM14.451 23.232H21.3435V17.103H14.451V23.232ZM23.655 31.4145H30.549H30.5505V25.2855H23.655V31.4145ZM23.655 23.232H30.549H30.5505V17.103H23.655V23.232ZM32.856 31.4145H39.75V25.2855H32.856V31.4145ZM32.856 23.232H39.75V17.103H32.856V23.232ZM11.5 9C12.8807 9 14 7.88071 14 6.5C14 5.11929 12.8807 4 11.5 4C10.1193 4 9 5.11929 9 6.5C9 7.88071 10.1193 9 11.5 9ZM22.5 9C23.8807 9 25 7.88071 25 6.5C25 5.11929 23.8807 4 22.5 4C21.1193 4 20 5.11929 20 6.5C20 7.88071 21.1193 9 22.5 9ZM36 6.5C36 7.88071 34.8807 9 33.5 9C32.1193 9 31 7.88071 31 6.5C31 5.11929 32.1193 4 33.5 4C34.8807 4 36 5.11929 36 6.5Z" fill="#EEF0FB"/>
</svg>
