<svg width="130" height="68" viewBox="0 0 130 68" fill="none" xmlns="http://www.w3.org/2000/svg">
<path d="M60.6633 27.1119H65.2441C67.7955 27.1119 69.1292 28.1169 69.1292 30.0711C69.1292 31.411 68.5493 32.2485 67.2157 32.5835C68.7233 32.9185 69.5351 33.756 69.5351 35.2635C69.5351 37.4968 68.2014 38.5576 65.4761 38.5576H60.6633V27.1119ZM63.2146 28.8427V31.8019H64.7803C66.056 31.8019 66.5778 31.3552 66.5778 30.2944C66.5778 29.2894 66.056 28.8427 64.7803 28.8427H63.2146ZM63.2146 33.4768V36.771H65.0122C66.2879 36.771 66.8677 36.1568 66.8677 35.1518C66.8677 34.0352 66.2879 33.4768 64.8382 33.4768H63.2146ZM79.2768 30.1827V38.5576H76.8993V37.2176C76.4354 38.0551 75.6236 38.7251 74.174 38.7251C72.2025 38.7251 71.2747 37.3293 71.2747 35.5426V30.1269H73.6521V35.2076C73.6521 36.3243 74.174 36.8826 75.1598 36.8826C76.1455 36.8826 76.8993 36.2685 76.8993 35.0402V30.1269H79.2768V30.1827ZM80.9004 35.9335H83.1038C83.2198 36.6593 83.5677 37.106 84.6115 37.106C85.5392 37.106 85.9452 36.771 85.9452 36.2126C85.9452 35.6543 85.4233 35.3751 84.2056 35.2076C83.0459 35.0402 82.292 34.8168 81.7702 34.3702C81.2483 33.9793 81.0163 33.421 81.0163 32.5835C81.0163 30.741 82.8719 29.9594 84.3795 29.9594C86.2351 29.9594 87.6847 30.6852 87.9167 32.5835H85.7712C85.6552 31.9135 85.2493 31.5785 84.4375 31.5785C83.6837 31.5785 83.2198 31.9135 83.2198 32.4719C83.2198 33.0302 83.6257 33.1977 84.8434 33.421C86.641 33.7002 88.1486 34.1468 88.1486 36.0451C88.1486 37.8876 86.8149 38.8368 84.5535 38.8368C82.35 38.7251 81.0163 37.7201 80.9004 35.9335ZM89.7722 27.7819C89.7722 27.0561 90.3521 26.4978 91.1059 26.4978C91.8597 26.4978 92.4396 27.0561 92.4396 27.7819C92.4396 28.5077 91.8597 29.0661 91.1059 29.0661C90.3521 29.0102 89.7722 28.5077 89.7722 27.7819ZM92.3236 30.1827V38.5576H90.0042V30.1827H92.3236ZM97.0205 30.1827V31.5227C97.4844 30.6852 98.3542 29.9594 99.8038 29.9594C100.674 29.9594 101.369 30.2385 101.833 30.741C102.355 31.2435 102.645 32.081 102.645 33.1977V38.5018H100.268V33.4768C100.268 32.3043 99.8038 31.8019 98.76 31.8019C97.7743 31.8019 97.0205 32.416 97.0205 33.6443V38.5018H94.6431V30.1269H97.0205V30.1827ZM112.851 35.9335C112.561 37.7201 111.111 38.7251 108.792 38.7251C106.182 38.7251 104.327 36.9943 104.327 34.4818C104.327 31.6902 106.182 29.9594 108.734 29.9594C111.459 29.9594 112.909 31.8019 112.909 34.2585V34.8727H106.762C106.82 36.2685 107.574 37.0501 108.908 37.0501C110.009 37.0501 110.531 36.6035 110.705 35.8776H112.851V35.9335ZM108.734 31.5785C107.69 31.5785 106.936 32.2485 106.762 33.4768H110.589C110.531 32.1927 109.893 31.5785 108.734 31.5785ZM114.01 35.9335H116.214C116.33 36.6593 116.678 37.106 117.721 37.106C118.649 37.106 119.055 36.771 119.055 36.2126C119.055 35.6543 118.533 35.3751 117.316 35.2076C116.156 35.0402 115.402 34.8168 114.88 34.3702C114.358 33.9793 114.126 33.421 114.126 32.5835C114.126 30.741 115.982 29.9594 117.49 29.9594C119.345 29.9594 120.795 30.6852 121.027 32.5835H118.881C118.765 31.9135 118.359 31.5785 117.548 31.5785C116.794 31.5785 116.33 31.9135 116.33 32.4719C116.33 33.0302 116.736 33.1977 117.953 33.421C119.751 33.7002 121.259 34.1468 121.259 36.0451C121.259 37.8876 119.925 38.8368 117.663 38.8368C115.46 38.7251 114.126 37.7201 114.01 35.9335ZM122.476 35.9335H124.68C124.796 36.6593 125.144 37.106 126.187 37.106C127.115 37.106 127.521 36.771 127.521 36.2126C127.521 35.6543 126.999 35.3751 125.782 35.2076C124.622 35.0402 123.868 34.8168 123.346 34.3702C122.824 33.9793 122.592 33.421 122.592 32.5835C122.592 30.741 124.448 29.9594 125.955 29.9594C127.811 29.9594 129.261 30.6852 129.493 32.5835H127.347C127.231 31.9135 126.825 31.5785 126.013 31.5785C125.26 31.5785 124.796 31.9135 124.796 32.4719C124.796 33.0302 125.202 33.1977 126.419 33.421C128.217 33.7002 129.725 34.1468 129.725 36.0451C129.725 37.8876 128.391 38.8368 126.129 38.8368C123.868 38.7251 122.534 37.7201 122.476 35.9335Z" fill="white"/>
<path d="M71.0433 14.3821C70.7533 17.2295 68.6658 18.6812 65.8245 18.6812C62.0554 18.6812 59.9679 16.4479 59.9679 12.8187C59.9679 9.3571 62.3454 6.84464 65.7665 6.84464C68.5499 6.84464 70.6374 8.29629 70.9273 11.0321H68.202C68.028 9.63628 67.2742 8.91045 65.7665 8.91045C63.911 8.91045 62.7513 10.3063 62.7513 12.7071C62.7513 15.2195 63.853 16.6154 65.7665 16.6154C67.2162 16.6154 68.202 15.8895 68.4339 14.4379H71.0433V14.3821ZM72.6089 7.68213C72.6089 6.95631 73.1887 6.39798 73.9426 6.39798C74.6964 6.39798 75.2762 6.95631 75.2762 7.68213C75.2762 8.40796 74.6964 8.96628 73.9426 8.96628C73.1887 8.96628 72.6089 8.40796 72.6089 7.68213ZM75.1023 10.1388V18.5137H72.7828V10.1388H75.1023ZM77.8276 16.0012V11.7579H76.7259V10.1388H77.8276V8.29629H80.205V10.1388H82.0026V11.7579H80.205V15.7779C80.205 16.4479 80.495 16.7829 81.1328 16.7829C81.4807 16.7829 81.7707 16.727 82.0606 16.6154V18.402C81.7127 18.5137 81.2488 18.6253 80.6109 18.6253C78.8134 18.6253 77.8276 17.732 77.8276 16.0012ZM82.9884 10.1388H85.5398L87.5693 15.1637L89.4828 10.1388H91.7443L87.1054 21.3611H84.8439L86.3516 17.6762L82.9884 10.1388Z" fill="white"/>
<path d="M60.3156 53.7441H62.809C63.0409 55.1399 63.7947 55.6424 65.1284 55.6424C66.2881 55.6424 67.042 55.0282 67.042 54.1349C67.042 52.9624 65.7663 52.7949 64.8385 52.6274C62.4611 52.2924 60.6635 51.6224 60.6635 49.1658C60.6635 46.8766 62.9249 45.76 64.8965 45.76C67.5058 45.76 69.0715 46.8766 69.2454 49.1658H66.81C66.6361 48.1608 65.9982 47.6583 64.8385 47.6583C63.6788 47.6583 63.0989 48.1608 63.0989 48.9425C63.0989 50.1149 64.3746 50.2824 65.2444 50.3941C67.6218 50.7291 69.5353 51.3432 69.5353 53.8557C69.5353 56.2565 67.2739 57.4848 65.0704 57.4848C62.4611 57.5407 60.4895 56.424 60.3156 53.7441ZM77.2475 54.1349H79.393C79.161 56.424 77.4214 57.4848 75.3339 57.4848C72.6666 57.4848 70.927 55.6982 70.927 53.2416C70.927 50.4499 72.8405 48.775 75.3339 48.775C77.5374 48.775 79.103 49.8358 79.335 52.0132H77.1315C76.9576 51.0641 76.3777 50.5616 75.3919 50.5616C74.1162 50.5616 73.3624 51.4549 73.3624 53.0741C73.3624 54.9724 74.1162 55.754 75.4499 55.754C76.3777 55.8099 77.1315 55.2515 77.2475 54.1349ZM81.0166 45.2017H83.394V50.3383C83.8579 49.5008 84.7277 48.8308 86.1773 48.8308C88.2068 48.8308 89.0186 50.3383 89.0186 52.0691V57.429H86.6992V52.4041C86.6992 51.2316 86.2353 50.7291 85.1916 50.7291C84.1478 50.7291 83.394 51.3433 83.394 52.5716V57.429H81.0166V45.2017ZM105.429 57.5407C102.877 57.5407 100.964 55.8657 100.964 53.2974C100.964 50.5616 102.877 48.8308 105.487 48.8308C108.096 48.8308 109.952 50.5058 109.952 53.1299C109.952 55.8657 108.038 57.5407 105.429 57.5407ZM105.429 55.754C106.762 55.754 107.516 54.8049 107.516 53.1857C107.516 51.4549 106.762 50.5058 105.429 50.5058C104.153 50.5058 103.341 51.4549 103.341 53.0182C103.399 54.8049 104.095 55.754 105.429 55.754ZM114.127 45.2017V57.3732H111.749V45.2017H114.127ZM95.1652 57.5407C92.6138 57.5407 90.7002 55.8657 90.7002 53.2974C90.7002 50.5616 92.6138 48.8308 95.2231 48.8308C97.8325 48.8308 99.6881 50.5058 99.6881 53.1299C99.6881 55.8657 97.7745 57.5407 95.1652 57.5407ZM95.2231 55.754C96.5568 55.754 97.3106 54.8049 97.3106 53.1857C97.3106 51.4549 96.5568 50.5058 95.2231 50.5058C93.9475 50.5058 93.1356 51.4549 93.1356 53.0182C93.1356 54.8049 93.8315 55.754 95.2231 55.754Z" fill="white"/>
<path d="M49.3557 30.741V0.0330658H0.183586V30.741C0.183586 53.2416 24.7696 67.3114 24.7696 67.3114C24.7696 67.3114 49.3557 53.2416 49.3557 30.741ZM24.7696 64.5756C21.1165 62.2865 2.67699 49.8916 2.67699 30.741V2.43387H46.8623V30.741C46.8623 49.8358 28.4228 62.2306 24.7696 64.5756Z" fill="white"/>
<path d="M26.8564 54.0232H29.0019C28.7699 56.3123 27.0303 57.3732 24.9428 57.3732C22.2755 57.3732 20.5359 55.5865 20.5359 53.1299C20.5359 50.3382 22.4494 48.6633 24.9428 48.6633C27.1463 48.6633 28.7119 49.7241 28.9439 51.9016H26.7404C26.5665 50.9524 25.9866 50.4499 25.0008 50.4499C23.7251 50.4499 22.9713 51.3432 22.9713 52.9624C22.9713 54.8607 23.7251 55.6424 25.0588 55.6424C25.9866 55.6424 26.7404 55.084 26.8564 54.0232Z" fill="white"/>
<path d="M37.8148 25.5486C35.3214 25.5486 33.2338 27.1119 32.0741 28.3402H27.7832L32.654 23.6503C34.3356 23.7061 36.9449 23.3711 38.7425 21.6962C41.5838 19.0162 40.6561 14.2704 40.6561 14.2704C40.6561 14.2704 35.7852 13.3771 32.9439 16.1129C31.2043 17.732 30.9144 20.3003 30.9144 21.9753L26.0436 26.6653V18.8487C27.2033 17.732 28.9429 15.7221 28.9429 13.3213C28.9429 9.52465 24.7679 6.78885 24.7679 6.78885C24.7679 6.78885 20.6509 9.58049 20.6509 13.3213C20.6509 15.7221 22.2745 17.732 23.5502 18.8487V26.6653L18.6794 21.9753C18.6794 20.3562 18.3894 17.7879 16.6499 16.1129C13.8085 13.3771 8.93772 14.2704 8.93772 14.2704C8.93772 14.2704 8.00995 19.0162 10.7933 21.6962C12.5329 23.3711 15.2002 23.7061 16.9398 23.6503L21.8106 28.3402H17.5196C16.3019 27.1678 14.2145 25.5486 11.779 25.5486C7.77801 25.5486 4.93669 29.5685 4.93669 29.5685C4.93669 29.5685 7.83599 33.5327 11.779 33.5327C14.2724 33.5327 16.3599 31.9694 17.5196 30.741H23.1443L21.9266 38.8926C21.5787 41.1817 19.8391 41.9634 19.3752 42.1309H17.8096V44.5317H31.7842V42.1309H30.1606C29.6967 41.9634 27.9571 41.1817 27.6092 38.8926L26.3915 30.741H32.0741C33.2338 31.9135 35.2634 33.5327 37.8148 33.5327C41.6418 33.5327 44.6571 29.5685 44.6571 29.5685C44.6571 29.5685 41.6998 25.5486 37.8148 25.5486ZM34.6835 17.7879C35.6693 16.8387 37.2349 16.5596 38.2786 16.5037C38.2206 17.5087 37.9307 19.072 36.945 19.9653C35.9592 20.9145 34.3936 21.1937 33.3498 21.2495C33.4078 20.2445 33.6397 18.6812 34.6835 17.7879ZM12.4749 19.9653C11.4891 19.0162 11.2572 17.5087 11.1992 16.5037C12.2429 16.5596 13.8085 16.8387 14.7943 17.7879C15.7801 18.737 16.012 20.2445 16.07 21.2495C15.0263 21.1937 13.4606 20.9145 12.4749 19.9653ZM11.6631 31.076C10.2714 31.076 8.93773 30.1827 8.18391 29.5127C8.93773 28.7869 10.2714 27.9494 11.6631 27.9494C13.0547 27.9494 14.3304 28.8427 15.1422 29.5127C14.3304 30.2386 13.0547 31.076 11.6631 31.076ZM23.0863 13.2654C23.0863 11.9255 24.0721 10.6971 24.7099 9.91548C25.4637 10.6971 26.3335 11.9255 26.3335 13.2654C26.3335 14.6612 25.4057 15.8896 24.7099 16.6712C24.0141 15.8896 23.0863 14.6054 23.0863 13.2654ZM24.7099 42.1309H23.0863C24.188 40.5676 24.188 39.2276 24.536 36.4918H24.8839C25.2318 39.2276 25.1738 40.5676 26.3335 42.1309H24.7099ZM37.8148 31.076C36.4231 31.076 35.0894 30.1827 34.3356 29.5127C35.0894 28.8427 36.4231 27.9494 37.8148 27.9494C39.2064 27.9494 40.4821 28.8427 41.2939 29.5127C40.4821 30.2386 39.2064 31.076 37.8148 31.076Z" fill="white"/>
</svg>
