<svg width="211" height="206" viewBox="0 0 211 206" fill="none" xmlns="http://www.w3.org/2000/svg">
<path d="M76.8858 94.1136C81.8572 94.1136 85.8873 90.2583 85.8873 85.5026C85.8873 80.7469 81.8572 76.8916 76.8858 76.8916C71.9144 76.8916 67.8843 80.7469 67.8843 85.5026C67.8843 90.2583 71.9144 94.1136 76.8858 94.1136Z" fill="#E64B52"/>
<path d="M134.07 129.064C139.042 129.064 143.072 125.209 143.072 120.453C143.072 115.697 139.042 111.842 134.07 111.842C129.099 111.842 125.069 115.697 125.069 120.453C125.069 125.209 129.099 129.064 134.07 129.064Z" fill="#E64B52"/>
<path d="M208.289 114.376L205.024 110.113C201.494 105.469 201.406 99.1799 204.892 94.4523L208.069 90.1468C212.922 83.5619 210.672 74.4022 203.215 70.561L198.361 68.0706C193.066 65.3691 190.154 59.7128 191.169 54.0144L192.095 48.8224C193.507 40.8868 187.286 33.5421 178.858 33.2044L173.342 32.9934C167.341 32.7401 162.134 28.8567 160.458 23.3271L158.913 18.2618C156.575 10.495 147.661 6.48498 139.895 9.693L134.821 11.7613C129.305 14.0407 122.863 12.69 118.848 8.38447L115.185 4.45886C109.582 -1.53507 99.7417 -1.49286 94.1819 4.62771L90.5637 8.59552C86.5924 12.9432 80.1943 14.3784 74.6346 12.1834L69.5161 10.1573C61.7059 7.07593 52.881 11.2548 50.6306 19.0216L49.1745 24.1291C47.586 29.7009 42.4675 33.6687 36.4665 33.9642L30.9508 34.2597C22.523 34.724 16.4337 42.1531 17.9781 50.0887L18.993 55.2807C20.0961 60.9369 17.2721 66.6354 12.0212 69.4213L7.21159 71.9962C-0.157283 75.9218 -2.27528 85.1237 2.71084 91.6242L5.97609 95.8875C9.50609 100.531 9.59434 106.82 6.10847 111.548L2.93147 115.853C-1.92228 122.438 0.328092 131.598 7.78521 135.439L12.639 137.929C17.934 140.631 20.8462 146.287 19.8313 151.986L18.9047 157.178C17.4927 165.113 23.7143 172.458 32.1422 172.796L37.6578 173.007C43.6588 173.26 48.8656 177.143 50.5423 182.673L52.0867 187.738C54.4253 195.505 63.3386 199.515 71.1046 196.307L76.1789 194.239C81.6946 191.959 88.1368 193.31 92.1522 197.616L95.8146 201.541C101.463 207.535 111.302 207.493 116.818 201.372L120.436 197.404C124.408 193.057 130.806 191.622 136.365 193.817L141.484 195.843C149.294 198.924 158.119 194.745 160.369 186.978L161.826 181.871C163.414 176.299 168.533 172.331 174.534 172.036L180.049 171.74C188.477 171.276 194.566 163.847 193.022 155.911L192.007 150.719C190.904 145.063 193.728 139.365 198.979 136.579L203.788 134.004C211.157 130.12 213.275 120.918 208.289 114.376ZM55.1313 85.5036C55.1313 74.0223 64.8388 64.7359 76.8408 64.7359C88.8428 64.7359 98.5503 74.0223 98.5503 85.5036C98.5503 96.985 88.8428 106.271 76.8408 106.271C64.8388 106.271 55.1313 96.9427 55.1313 85.5036ZM81.0327 139.069C79.1794 141.222 75.8259 141.517 73.5756 139.745C71.3252 137.972 71.0163 134.764 72.8696 132.611L129.835 66.9731C131.688 64.8203 135.042 64.5248 137.292 66.2977C139.542 68.0706 139.851 71.2786 137.998 73.4313L81.0327 139.069ZM134.071 141.222C122.069 141.222 112.361 131.936 112.361 120.454C112.361 108.973 122.069 99.6865 134.071 99.6865C146.073 99.6865 155.78 108.973 155.78 120.454C155.78 131.936 146.073 141.222 134.071 141.222Z" fill="#E64B52"/>
</svg>
