<svg width="25" height="25" viewBox="0 0 25 25" fill="none" xmlns="http://www.w3.org/2000/svg">
<path d="M23.6111 17.3611C21.882 17.3611 20.2083 17.0833 18.6528 16.5695C18.1736 16.4167 17.625 16.5278 17.2431 16.9098L14.1876 19.9723C10.2501 17.9723 7.03477 14.757 5.03477 10.8264L8.0903 7.75697C8.47227 7.375 8.58333 6.82643 8.4306 6.34727C7.91673 4.79173 7.63893 3.1181 7.63893 1.38893C7.63887 0.618034 7.02083 0 6.25 0H1.38887C0.625 0 0 0.618034 0 1.38887C0 14.4305 10.5695 25 23.6111 25C24.382 25 25 24.382 25 23.6111V18.75C25 17.9792 24.382 17.3611 23.6111 17.3611Z" fill="#4B5E93"/>
</svg>
