<svg width="111" height="111" viewBox="0 0 111 111" fill="none" xmlns="http://www.w3.org/2000/svg">
<path d="M94.7444 16.2554C84.2618 5.77308 70.3246 0 55.5 0C40.6752 0 26.7378 5.77308 16.2554 16.2554C5.77287 26.738 0 40.6754 0 55.5C0 70.3246 5.77287 84.2618 16.2554 94.7444C26.738 105.227 40.6752 111 55.5 111C70.3246 111 84.2618 105.227 94.7444 94.7444C105.227 84.2618 111 70.3246 111 55.5C111 40.6754 105.227 26.7382 94.7444 16.2554ZM55.5 104.496C28.4834 104.496 6.50391 82.5166 6.50391 55.5C6.50391 28.4834 28.4834 6.50391 55.5 6.50391C82.5166 6.50391 104.496 28.4834 104.496 55.5C104.496 82.5166 82.5166 104.496 55.5 104.496Z" fill="#091836"/>
<path d="M82.0154 37.6924C80.7456 36.4228 78.6865 36.4228 77.4167 37.6926L48.7 66.4093L33.5834 51.2927C32.3136 50.0229 30.2545 50.0229 28.9845 51.2927C27.7145 52.5625 27.7145 54.6216 28.9845 55.8916L46.4004 73.3075C47.0354 73.9425 47.8677 74.2599 48.6998 74.2599C49.5318 74.2599 50.3643 73.9423 50.9991 73.3075L82.0154 42.2913C83.2854 41.0215 83.2854 38.9624 82.0154 37.6924Z" fill="#091836"/>
</svg>
