<svg width="30" height="30" viewBox="0 0 30 30" fill="none" xmlns="http://www.w3.org/2000/svg">
<path d="M15 30C23.2843 30 30 23.2843 30 15C30 6.71573 23.2843 0 15 0C6.71573 0 0 6.71573 0 15C0 23.2843 6.71573 30 15 30Z" fill="#4B5E93"/>
<path d="M6.86383 14.6753L21.3263 9.09901C21.9976 8.85651 22.5838 9.26276 22.3663 10.2778L22.3676 10.2765L19.9051 21.8778C19.7226 22.7003 19.2338 22.9003 18.5501 22.5128L14.8001 19.749L12.9913 21.4915C12.7913 21.6915 12.6226 21.8603 12.2351 21.8603L12.5013 18.044L19.4513 11.7653C19.7538 11.499 19.3838 11.349 18.9851 11.614L10.3963 17.0215L6.69383 15.8665C5.89008 15.6115 5.87258 15.0628 6.86383 14.6753Z" fill="white"/>
</svg>
