<?xml version="1.0" standalone="no"?>
<!DOCTYPE svg PUBLIC "-//W3C//DTD SVG 20010904//EN"
 "http://www.w3.org/TR/2001/REC-SVG-20010904/DTD/svg10.dtd">
<svg version="1.0" xmlns="http://www.w3.org/2000/svg"
 width="514.000000pt" height="514.000000pt" viewBox="0 0 514.000000 514.000000"
 preserveAspectRatio="xMidYMid meet">
<metadata>
Created by potrace 1.11, written by Peter Selinger 2001-2013
</metadata>
<g transform="translate(0.000000,514.000000) scale(0.100000,-0.100000)"
fill="#000000" stroke="none">
<path d="M765 3856 c1 -704 5 -1294 8 -1311 3 -16 11 -68 17 -115 53 -373 209
-766 458 -1149 52 -80 206 -288 254 -342 13 -15 43 -51 68 -80 93 -111 375
-386 500 -489 30 -25 64 -53 75 -63 38 -34 240 -184 332 -246 l93 -62 69 45
c365 238 802 641 1076 990 332 424 570 939 630 1366 3 25 9 61 12 80 3 19 7
51 10 70 3 19 6 607 8 1307 3 1172 2 1273 -14 1277 -9 3 -822 4 -1807 4
l-1792 -1 3 -1281z m3422 -108 c-2 -662 -7 -1221 -11 -1243 -4 -22 -14 -76
-22 -120 -9 -44 -18 -93 -21 -110 -11 -64 -73 -265 -112 -362 -164 -412 -407
-770 -766 -1128 -93 -94 -188 -187 -210 -206 -119 -104 -329 -267 -433 -334
l-42 -28 -43 28 c-193 127 -432 327 -642 539 -158 159 -161 162 -274 300 -241
296 -437 646 -542 971 -25 77 -38 123 -65 240 -3 11 -11 56 -19 100 -7 44 -17
98 -21 120 -4 22 -9 579 -11 1238 l-4 1197 1621 0 1621 0 -4 -1202z"/>
<path d="M2471 4533 c-180 -181 -239 -357 -181 -544 22 -74 84 -176 148 -243
l42 -45 0 -290 c0 -160 -2 -291 -4 -291 -2 0 -82 79 -178 175 l-174 174 -2 48
c-16 362 -226 553 -600 547 -62 -1 -108 -6 -115 -13 -18 -18 -13 -243 7 -321
36 -141 112 -251 217 -312 77 -45 208 -78 327 -82 29 -1 55 -23 207 -176 96
-96 173 -176 171 -177 -3 -3 -236 -6 -282 -4 -12 1 -39 17 -60 37 -129 120
-261 175 -403 170 -100 -3 -169 -27 -263 -88 -58 -38 -218 -191 -218 -208 0
-16 73 -97 137 -152 78 -67 177 -122 254 -142 66 -17 176 -13 247 9 83 25 214
110 263 170 15 18 30 19 219 20 160 1 203 -2 207 -13 3 -7 -4 -77 -16 -155
-12 -78 -24 -158 -27 -177 -2 -19 -14 -99 -25 -177 -26 -191 -56 -253 -153
-317 -31 -21 -51 -26 -100 -26 l-62 0 1 -95 0 -95 515 2 515 3 0 90 0 90 -65
3 c-76 4 -126 28 -168 81 -56 70 -66 99 -87 261 -6 50 -16 117 -20 141 -2 9
-6 40 -10 70 -3 30 -8 61 -10 69 -2 8 -7 40 -10 70 -3 30 -8 62 -10 70 -2 8
-7 34 -10 58 l-6 42 153 1 c280 2 248 7 327 -59 229 -192 448 -202 681 -29 58
43 180 166 180 181 0 19 -189 195 -245 228 -106 61 -149 73 -260 72 -79 0
-112 -5 -157 -23 -66 -25 -152 -81 -218 -141 -25 -22 -52 -40 -60 -41 -71 -3
-281 -1 -285 3 -2 2 74 82 170 178 l175 174 72 3 c84 4 198 33 268 68 109 55
198 175 236 316 18 68 28 258 15 305 -8 32 -17 34 -131 34 -119 -1 -118 -1
-190 -17 -244 -57 -376 -224 -396 -501 l-6 -77 -177 -178 -178 -179 0 294 0
293 58 68 c185 220 201 438 50 654 -47 67 -183 203 -203 203 -5 0 -49 -39 -97
-87z m121 -180 c27 -31 73 -116 85 -158 14 -48 11 -105 -7 -160 -13 -40 -74
-140 -92 -151 -16 -10 -54 34 -89 103 -61 120 -49 220 40 341 35 47 41 50 63
25z m-880 -499 c128 -41 197 -132 214 -281 l7 -56 -52 7 c-176 23 -278 127
-297 301 l-6 53 41 -3 c22 -2 64 -11 93 -21z m1844 -30 c-7 -65 -40 -144 -81
-192 -43 -52 -147 -97 -241 -107 l-35 -3 6 37 c18 116 69 214 136 258 43 28
131 58 185 61 l36 3 -6 -57z m-1873 -835 c40 -11 149 -72 167 -94 9 -11 2 -21
-32 -46 -72 -53 -142 -81 -206 -81 -56 0 -132 22 -163 49 -8 7 -20 13 -25 13
-16 0 -65 51 -59 60 13 22 96 70 151 89 66 23 112 26 167 10z m1934 -5 c26 -9
74 -35 106 -57 l57 -40 -21 -23 c-28 -30 -156 -93 -199 -97 -74 -8 -209 43
-260 99 l-22 22 43 32 c39 28 91 55 139 73 31 11 111 7 157 -9z m-1017 -793
c11 -100 37 -191 68 -238 l14 -23 -111 0 c-61 0 -111 2 -111 4 0 2 11 26 24
53 32 63 47 128 62 273 3 36 11 74 17 85 10 18 11 17 18 -15 4 -19 12 -82 19
-139z"/>
<path d="M2497 1420 c-92 -23 -168 -88 -210 -178 -32 -69 -32 -238 0 -302 30
-60 85 -116 147 -148 45 -23 62 -26 146 -26 104 0 146 13 209 63 40 32 79 101
88 156 l6 35 -82 0 c-66 0 -81 -3 -81 -15 0 -48 -58 -105 -108 -107 -61 -3
-83 4 -116 33 -79 69 -73 272 9 332 14 10 46 20 73 23 39 5 53 2 82 -18 21
-14 39 -37 45 -56 l9 -32 83 0 83 0 -5 32 c-16 86 -74 160 -153 194 -44 19
-172 27 -225 14z"/>
</g>
</svg>
