<svg width="403" height="790" viewBox="0 0 403 790" fill="none" xmlns="http://www.w3.org/2000/svg">
<path d="M402.443 361.059V0.878906H-176V361.059C-176 624.972 113.221 790 113.221 790C113.221 790 402.443 624.972 402.443 361.059ZM113.221 757.911C70.2473 731.062 -146.669 585.68 -146.669 361.059V29.0384H373.111V361.059C373.111 585.025 156.195 730.407 113.221 757.911Z" fill="white" fill-opacity="0.45"/>
<path d="M137.768 634.136H163.007C160.278 660.986 139.815 673.429 115.258 673.429C83.8804 673.429 63.4166 652.473 63.4166 623.658C63.4166 590.915 85.9267 571.269 115.258 571.269C141.179 571.269 159.596 583.711 162.325 609.251H136.404C134.358 598.118 127.536 592.225 115.94 592.225C100.934 592.225 92.0659 602.703 92.0659 621.694C92.0659 643.959 100.933 653.128 116.622 653.128C127.536 653.128 136.404 646.579 137.768 634.136Z" fill="white" fill-opacity="0.45"/>
<path d="M266.68 300.157C237.348 300.157 212.792 318.493 199.149 332.9H148.672L205.97 277.891C225.752 278.546 256.448 274.617 277.594 254.97C311.018 223.537 300.104 167.872 300.104 167.872C300.104 167.872 242.805 157.395 209.381 189.483C188.917 208.475 185.507 238.599 185.507 258.245L128.208 313.254V221.572C141.851 208.475 162.314 184.899 162.314 156.74C162.314 112.208 113.201 80.1196 113.201 80.1196C113.201 80.1196 64.7706 112.863 64.7706 156.74C64.7706 184.899 83.8701 208.475 98.8769 221.572V313.254L41.5783 258.245C41.5783 239.254 38.1676 209.129 17.7039 189.483C-15.7203 157.395 -73.0189 167.872 -73.0189 167.872C-73.0189 167.872 -83.9328 223.537 -51.1908 254.97C-30.727 274.617 0.650734 278.546 21.1145 277.891L78.4131 332.9H27.9358C13.6111 319.148 -10.9454 300.157 -39.5946 300.157C-86.6613 300.157 -120.085 347.307 -120.085 347.307C-120.085 347.307 -85.9792 393.803 -39.5946 393.803C-10.2632 393.803 14.2932 375.467 27.9358 361.06H94.1019L79.7773 456.671C75.6846 483.521 55.2208 492.689 49.7638 494.653H31.3464V522.813H195.739V494.653H176.639C171.182 492.689 150.718 483.521 146.626 456.671L132.301 361.06H199.149C212.792 374.812 236.666 393.803 266.68 393.803C311.7 393.803 347.171 347.307 347.171 347.307C347.171 347.307 312.382 300.157 266.68 300.157ZM229.845 209.129C241.441 197.997 259.858 194.722 272.137 194.067C271.455 205.855 268.044 224.191 256.448 234.669C244.852 245.802 226.434 249.077 214.156 249.731C214.838 237.944 217.567 219.607 229.845 209.129ZM-31.4091 234.669C-43.0053 223.537 -45.7338 205.855 -46.4159 194.067C-34.1376 194.722 -15.7203 197.997 -4.12412 209.129C7.47201 220.262 10.2005 237.944 10.8826 249.731C-1.39565 249.077 -19.813 245.802 -31.4091 234.669ZM-40.9589 364.989C-57.3299 364.989 -73.0188 354.511 -81.8864 346.653C-73.0188 338.139 -57.3299 328.316 -40.9589 328.316C-24.5879 328.316 -9.58109 338.794 -0.0313263 346.653C-9.58109 355.166 -24.5879 364.989 -40.9589 364.989ZM93.4199 156.085C93.4199 140.368 105.016 125.961 112.519 116.792C121.387 125.961 131.619 140.368 131.619 156.085C131.619 172.457 120.705 186.864 112.519 196.032C104.334 186.864 93.4199 171.802 93.4199 156.085ZM112.519 494.653H93.4199C106.38 476.317 106.38 460.6 110.473 428.512H114.566C118.658 460.6 117.976 476.317 131.619 494.653H112.519ZM266.68 364.989C250.309 364.989 234.62 354.511 225.752 346.653C234.62 338.794 250.309 328.316 266.68 328.316C283.051 328.316 298.058 338.794 307.607 346.653C298.058 355.166 283.051 364.989 266.68 364.989Z" fill="white" fill-opacity="0.45"/>
</svg>
