<svg width="354" height="627" viewBox="0 0 354 627" fill="none" xmlns="http://www.w3.org/2000/svg">
<path d="M353.088 286.075V0H-105V286.075C-105 495.691 124.044 626.765 124.044 626.765C124.044 626.765 353.088 495.691 353.088 286.075ZM124.044 601.279C90.0113 579.953 -81.7715 464.483 -81.7715 286.075V22.3659H329.859V286.075C329.859 463.962 158.076 579.433 124.044 601.279Z" fill="#C9E2FF"/>
<path d="M143.484 502.969H163.471C161.31 524.295 145.104 534.178 125.657 534.178C100.808 534.178 84.6022 517.533 84.6022 494.647C84.6022 468.64 102.429 453.036 125.657 453.036C146.185 453.036 160.77 462.919 162.931 483.204H142.403C140.783 474.362 135.381 469.681 126.197 469.681C114.313 469.681 107.291 478.003 107.291 493.087C107.291 510.771 114.313 518.053 126.738 518.053C135.381 518.053 142.403 512.852 143.484 502.969Z" fill="#C9E2FF"/>
<path d="M245.573 237.702C222.344 237.702 202.897 252.265 192.093 263.708H152.118L197.495 220.017C213.161 220.537 237.47 217.416 254.216 201.812C280.685 176.846 272.042 132.634 272.042 132.634C272.042 132.634 226.666 124.312 200.196 149.798C183.99 164.882 181.289 188.809 181.289 204.413L135.913 248.104V175.285C146.716 164.882 162.922 146.158 162.922 123.792C162.922 88.4223 124.028 62.9355 124.028 62.9355C124.028 62.9355 85.6742 88.9425 85.6742 123.792C85.6742 146.158 100.8 164.882 112.684 175.285V248.104L67.3074 204.413C67.3074 189.329 64.6065 165.403 48.4005 149.798C21.9309 124.312 -23.4458 132.634 -23.4458 132.634C-23.4458 132.634 -32.0889 176.846 -6.15937 201.812C10.0466 217.416 34.8956 220.537 51.1015 220.017L96.4782 263.708H56.5035C45.1594 252.786 25.7123 237.702 3.02398 237.702C-34.2497 237.702 -60.7194 275.151 -60.7194 275.151C-60.7194 275.151 -33.7095 312.081 3.02398 312.081C26.2525 312.081 45.6996 297.517 56.5035 286.074H108.903L97.5586 362.014C94.3174 383.34 78.1114 390.622 73.7898 392.182H59.2045V414.548H189.392V392.182H174.267C169.945 390.622 153.739 383.34 150.498 362.014L139.154 286.074H192.093C202.897 296.997 221.804 312.081 245.573 312.081C281.226 312.081 309.316 275.151 309.316 275.151C309.316 275.151 281.766 237.702 245.573 237.702ZM216.402 165.403C225.585 156.56 240.171 153.959 249.894 153.439C249.354 162.802 246.653 177.366 237.47 185.688C228.286 194.53 213.701 197.131 203.977 197.651C204.518 188.289 206.678 173.725 216.402 165.403ZM9.50633 185.688C0.322968 176.846 -1.8378 162.802 -2.378 153.439C7.34556 153.959 21.9309 156.56 31.1142 165.403C40.2976 174.245 42.4584 188.289 42.9986 197.651C33.275 197.131 18.6897 194.53 9.50633 185.688ZM1.9436 289.195C-11.0211 289.195 -23.4457 280.873 -30.4683 274.631C-23.4457 267.87 -11.0211 260.067 1.9436 260.067C14.9083 260.067 26.7927 268.39 34.3555 274.631C26.7927 281.393 14.9083 289.195 1.9436 289.195ZM108.363 123.271C108.363 110.788 117.546 99.3452 123.488 92.0632C130.511 99.3452 138.614 110.788 138.614 123.271C138.614 136.275 129.97 147.718 123.488 155C117.006 147.718 108.363 135.755 108.363 123.271ZM123.488 392.182H108.363C118.626 377.618 118.626 365.135 121.867 339.648H125.109C128.35 365.135 127.81 377.618 138.614 392.182H123.488ZM245.573 289.195C232.608 289.195 220.183 280.873 213.161 274.631C220.183 268.39 232.608 260.067 245.573 260.067C258.538 260.067 270.422 268.39 277.985 274.631C270.422 281.393 258.538 289.195 245.573 289.195Z" fill="#C9E2FF"/>
</svg>
