<svg width="96" height="140" viewBox="0 0 96 140" fill="none" xmlns="http://www.w3.org/2000/svg">
<rect x="2" y="2" width="92" height="136" stroke="white" stroke-width="4" stroke-linejoin="round"/>
<path d="M4.75785 2.14914C4.14102 1.89658 3.43892 1.9679 2.88548 2.33932C2.33204 2.71075 2 3.33348 2 4V136C2 136.66 2.32538 137.277 2.86967 137.65C3.41396 138.023 4.10713 138.103 4.72236 137.865L46.7224 121.597C47.4924 121.299 48 120.558 48 119.732V21.1972C48 20.3853 47.5092 19.654 46.7578 19.3463L4.75785 2.14914Z" stroke="white" stroke-width="4" stroke-linejoin="round"/>
<path d="M35.957 75C37.3861 75 38.435 74.1312 39.0353 73.2307C39.645 72.3163 39.957 71.1682 39.957 70C39.957 68.8318 39.645 67.6837 39.0353 66.7693C38.435 65.8688 37.3861 65 35.957 65C34.528 65 33.479 65.8688 32.8787 66.7693C32.2691 67.6837 31.957 68.8318 31.957 70C31.957 71.1682 32.2691 72.3163 32.8787 73.2307C33.479 74.1312 34.528 75 35.957 75Z" stroke="white" stroke-width="4"/>
</svg>
