<svg width="121" height="105" viewBox="0 0 121 105" fill="none" xmlns="http://www.w3.org/2000/svg">
<path d="M28.0365 74.226H35.91C37.8846 74.226 39.3625 72.5576 38.9754 70.7728L37.9349 65.9784L43.1285 66.9387C45.0606 67.2968 46.8687 65.9322 46.8687 64.1088V56.8401C46.8687 55.0149 45.058 53.6521 43.1285 54.0101L37.9349 54.9705L38.9754 50.1758C39.3635 48.3882 37.8813 46.7229 35.91 46.7229H28.0365C26.0609 46.7229 24.5837 48.3913 24.9709 50.176L26.0113 54.9705L20.8177 54.0101C18.8816 53.6527 17.0775 55.0193 17.0775 56.8401V64.1088C17.0775 65.9352 18.8892 67.2959 20.8177 66.9387L26.0113 65.9784L24.9709 70.773C24.583 72.5613 26.0652 74.226 28.0365 74.226ZM34.2755 62.6H29.671V58.3492H34.2755V62.6ZM28.5448 70.9551L29.6483 65.8709H34.2984L35.4019 70.9551H28.5448ZM43.3257 57.3096V63.6395L37.8187 62.6212V58.3279L43.3257 57.3096ZM35.4017 49.994L34.2982 55.0782H29.6481L28.5446 49.994H35.4017ZM20.6208 63.6395V57.3096L26.128 58.3281V62.6212L20.6208 63.6395Z" fill="white"/>
<path d="M73.9279 60.2496C73.9279 63.6799 76.951 66.4706 80.6666 66.4706C81.7244 66.4706 82.7254 66.2438 83.6168 65.8412C83.1808 66.6644 82.9351 67.5887 82.9351 68.565C82.9351 71.9952 85.9582 74.7859 89.6739 74.7859C93.3896 74.7859 96.4125 71.9952 96.4125 68.565C96.4125 67.5885 96.1668 66.6644 95.7308 65.841C96.6224 66.2436 97.6237 66.4703 98.6814 66.4703C102.397 66.4703 105.42 63.6796 105.42 60.2494C105.42 56.8191 102.397 54.0282 98.6814 54.0282C97.6237 54.0282 96.6224 54.255 95.7308 54.6576C96.1668 53.8344 96.4125 52.91 96.4125 51.9336C96.4125 48.5033 93.3896 45.7126 89.6739 45.7126C85.9582 45.7126 82.9351 48.5033 82.9351 51.9336C82.9351 52.91 83.1808 53.8342 83.6168 54.6573C82.7251 54.2548 81.7241 54.028 80.6664 54.028C76.951 54.0282 73.9279 56.8191 73.9279 60.2496ZM89.6741 71.5153C87.9119 71.5153 86.4784 70.1919 86.4784 68.5652C86.4784 66.9383 87.9119 65.6149 89.6741 65.6149C91.4362 65.6149 92.8697 66.9383 92.8697 68.5652C92.8699 70.1917 91.4362 71.5153 89.6741 71.5153ZM86.7238 62.9731C87.1598 62.15 87.4054 61.2259 87.4054 60.2494C87.4054 59.2729 87.1598 58.3486 86.7238 57.5254C87.6154 57.928 88.6167 58.1547 89.6744 58.1547C90.7321 58.1547 91.7333 57.928 92.625 57.5254C92.189 58.3486 91.9433 59.2729 91.9433 60.2494C91.9433 61.2259 92.189 62.15 92.625 62.9731C91.7333 62.5706 90.7323 62.3438 89.6746 62.3438C88.6167 62.3438 87.6154 62.5706 86.7238 62.9731ZM98.6816 57.2991C100.444 57.2991 101.877 58.6225 101.877 60.2494C101.877 61.8761 100.444 63.1995 98.6816 63.1995C96.9196 63.1995 95.4861 61.8761 95.4861 60.2494C95.4861 58.6227 96.9196 57.2991 98.6816 57.2991ZM89.6741 48.9835C91.4362 48.9835 92.8697 50.3069 92.8697 51.9336C92.8697 53.5605 91.4362 54.8839 89.6741 54.8839C87.9119 54.8839 86.4784 53.5605 86.4784 51.9336C86.4784 50.3071 87.9119 48.9835 89.6741 48.9835ZM83.8624 60.2496C83.8624 61.8763 82.4289 63.1997 80.6669 63.1997C78.9046 63.1997 77.4711 61.8763 77.4711 60.2496C77.4711 58.6227 78.9046 57.2993 80.6669 57.2993C82.4289 57.2991 83.8624 58.6227 83.8624 60.2496Z" fill="white"/>
<path d="M37.6046 79.5194C37.6046 82.8441 40.5347 85.5491 44.136 85.5491C47.7376 85.5491 50.6677 82.8441 50.6677 79.5194C50.6677 76.1945 47.7376 73.4895 44.136 73.4895C40.5347 73.4893 37.6046 76.1945 37.6046 79.5194ZM47.1249 79.5194C47.1249 81.0408 45.7842 82.2783 44.1363 82.2783C42.4883 82.2783 41.1479 81.0406 41.1479 79.5194C41.1479 77.9978 42.4885 76.7604 44.1363 76.7604C45.7842 76.7601 47.1249 77.9978 47.1249 79.5194Z" fill="white"/>
<path d="M70.1311 79.5194C70.1311 82.8441 73.0612 85.5491 76.6625 85.5491C80.2641 85.5491 83.1942 82.8441 83.1942 79.5194C83.1942 76.1945 80.2641 73.4895 76.6625 73.4895C73.0612 73.4893 70.1311 76.1945 70.1311 79.5194ZM76.6628 76.7601C78.311 76.7601 79.6514 77.9978 79.6514 79.5192C79.6514 81.0406 78.3107 82.2781 76.6628 82.2781C75.0148 82.2781 73.6743 81.0404 73.6743 79.5192C73.6741 77.9978 75.0148 76.7601 76.6628 76.7601Z" fill="white"/>
<path d="M53.2322 59.7983C52.2536 59.7983 51.4607 60.5303 51.4607 61.4337C51.4607 62.3371 52.2536 63.0691 53.2322 63.0691H55.8197C56.7982 63.0691 57.5911 62.3371 57.5911 61.4337C57.5911 60.5303 56.7982 59.7983 55.8197 59.7983H53.2322Z" fill="white"/>
<path d="M65.1118 59.7983C64.1332 59.7983 63.3403 60.5303 63.3403 61.4337C63.3403 62.3371 64.1332 63.0691 65.1118 63.0691H67.6993C68.6779 63.0691 69.4708 62.3371 69.4708 61.4337C69.4708 60.5303 68.6779 59.7983 67.6993 59.7983H65.1118Z" fill="white"/>
<path d="M70.0934 54.0085C70.0934 53.1051 69.3005 52.373 68.3219 52.373H52.6096C51.6311 52.373 50.8381 53.1051 50.8381 54.0085C50.8381 54.9119 51.6311 55.6439 52.6096 55.6439H68.3219C69.3005 55.6439 70.0934 54.9119 70.0934 54.0085Z" fill="white"/>
<path d="M120.697 91.14L113.765 58.2819L113.753 58.2175C113.752 58.2069 113.749 58.196 113.748 58.1855C112.866 53.0535 110.077 48.2947 105.891 44.7815C101.761 41.316 96.4499 39.2196 90.8963 38.8554C90.8963 38.8554 90.837 38.8155 80.525 38.7941V23.0489L89.6527 18.4119C90.4228 18.0212 90.9008 17.2743 90.9008 16.4632C90.9008 15.652 90.4227 14.9052 89.6532 14.5144L76.6785 7.92298C75.8208 7.48731 74.744 7.77623 74.2721 8.56734C73.8006 9.35867 74.1129 10.3532 74.9701 10.7889L86.1395 16.463C83.1695 17.9717 74.6628 22.2931 71.5475 23.8758L61.6821 15.2741C60.9709 14.654 59.8495 14.6832 59.1779 15.3402C58.506 15.9968 58.5381 17.0319 59.2495 17.652L68.2872 25.5324L60.4572 29.5099C58.7873 28.7143 52.3024 25.2888 34.7988 16.4597L60.4657 3.42055L68.6791 7.59306C69.536 8.02852 70.6133 7.74003 71.0853 6.94849C71.5567 6.15716 71.2445 5.16282 70.3873 4.72714L61.6283 0.277695C60.901 -0.092565 60.0323 -0.092347 59.3041 0.277041L31.2789 14.5144C30.5089 14.9052 30.0308 15.652 30.0308 16.4632C30.0308 17.2743 30.5089 18.0212 31.2841 18.4143C34.7378 20.1547 37.7577 21.6817 40.4069 23.0252V38.7939C33.3747 38.8096 32.5823 38.7994 32.1862 38.7941C26.1246 38.7078 20.2607 40.6596 15.6585 44.2761C11.1207 47.8418 8.11241 52.7799 7.1839 58.1848C7.18154 58.1973 7.17918 58.2095 7.17729 58.2219L7.16879 58.2714L0.234658 91.14C-0.487878 94.5641 0.476055 98.0722 2.87916 100.765C7.3535 105.777 15.2915 106.381 20.601 102.359C20.6665 102.31 20.7281 102.256 20.7853 102.198L25.6722 97.2595C26.3322 96.5925 26.2814 95.558 25.5591 94.949C24.8368 94.3395 23.7163 94.3864 23.0563 95.0534L18.2589 99.9015C14.4109 102.737 8.77896 102.231 5.61294 98.6845C3.88537 96.7491 3.19236 94.2272 3.71153 91.7654L10.649 58.8822C10.6511 58.8728 10.6542 58.8567 10.656 58.8473C10.6586 58.8349 10.6608 58.8229 10.6629 58.8105L10.6693 58.7719C10.6721 58.7583 10.6742 58.745 10.6766 58.7313C11.466 54.0836 14.0505 49.8344 17.9542 46.767C21.9018 43.6649 26.9376 42.0018 32.1337 42.065C33.6681 42.0862 40.7567 42.0652 40.7567 42.0652C41.2142 43.0899 42.095 43.9316 43.2519 44.3786C54.6724 48.7907 66.2559 48.7914 77.6779 44.3786C78.835 43.9313 79.7158 43.0896 80.1733 42.0652C82.8927 42.0731 89.1671 42.0419 90.3153 42.099C100.318 42.6099 108.703 49.6047 110.253 58.7313C110.256 58.7463 110.258 58.7614 110.261 58.776L110.265 58.7937C110.269 58.8207 110.273 58.8473 110.279 58.8739L117.218 91.7651C117.738 94.2268 117.045 96.7486 115.317 98.6841C111.752 102.678 105.182 102.742 101.514 98.8819L92.036 88.9106C88.8645 85.5743 83.3908 85.0117 79.5743 87.629C78.4306 88.4134 77.0701 88.8279 75.6399 88.8279C72.6971 88.8279 70.149 87.0708 69.2991 84.4557C68.1413 80.8904 64.722 78.4953 60.791 78.4953H60.1424C56.2106 78.4953 52.7897 80.8909 51.6304 84.457C50.7806 87.0713 48.2324 88.8279 45.2898 88.8279C43.8594 88.8279 42.4991 88.4134 41.3555 87.629C37.5389 85.0117 32.0652 85.5741 28.8938 88.9108C28.2487 89.5896 28.3215 90.623 29.057 91.2187C29.792 91.814 30.9119 91.7475 31.5569 91.068C33.52 89.0026 36.896 88.6454 39.2424 90.2549C41.0016 91.4612 43.0927 92.099 45.2898 92.099C49.8091 92.099 53.7208 89.4058 55.0239 85.3974C55.7299 83.2256 57.7867 81.7666 60.1424 81.7666H60.791C63.1452 81.7666 65.2006 83.225 65.9056 85.3959C67.2085 89.4053 71.1202 92.0992 75.6399 92.0992C77.8371 92.0992 79.9279 91.4614 81.6873 90.2551C84.0335 88.6452 87.41 89.0028 89.3731 91.0682L98.8504 101.039C103.953 106.407 113.092 106.321 118.052 100.764C120.456 98.072 121.42 94.5641 120.697 91.14ZM76.311 41.3609C65.797 45.4231 55.1351 45.4235 44.6207 41.3609C44.2132 41.2035 43.9499 40.841 43.9499 40.4374V24.825C54.2815 30.0813 57.6528 31.8724 59.0178 32.5028C59.9406 32.9289 60.7336 33.1655 61.6536 32.6358L69.4987 28.6504V37.8565C69.4987 38.7599 70.2916 39.4919 71.2702 39.4919C72.2488 39.4919 73.0417 38.7599 73.0417 37.8565V26.8505L76.982 24.8488V40.4372C76.982 40.841 76.7186 41.2037 76.311 41.3609Z" fill="white"/>
</svg>
