<svg width="110" height="110" viewBox="0 0 110 110" fill="none" xmlns="http://www.w3.org/2000/svg">
<path d="M102.86 0H20.6168C16.6814 0 13.4797 3.20154 13.4797 7.13692V21.7225C13.4797 22.6125 14.2009 23.3337 15.0909 23.3337C15.9809 23.3337 16.7021 22.6125 16.7021 21.7225V7.13692C16.7021 4.97836 18.4583 3.22238 20.6168 3.22238H102.86C105.018 3.22238 106.774 4.97836 106.774 7.13692V61.9646C106.774 63.629 105.745 65.0576 104.26 65.6211C103.545 64.2701 102.055 63.336 100.333 63.336H98.4814C97.4318 63.336 96.4679 63.6823 95.7128 64.258C94.9577 63.6823 93.9938 63.336 92.9441 63.336H91.093C90.0433 63.336 89.0794 63.6823 88.3243 64.258C87.5692 63.6823 86.6051 63.336 85.5556 63.336H83.7047C83.3034 63.336 82.9165 63.3908 82.547 63.4853V61.7452H100.729C101.783 61.7452 102.641 60.8801 102.641 59.8163V9.28517C102.641 8.22157 101.783 7.35626 100.729 7.35626H25.0905C24.0366 7.35626 23.179 8.22136 23.179 9.28517V57.2681L17.1618 63.7934C16.8664 63.235 16.7021 62.6097 16.7021 61.9646V28.3328C16.7021 27.4428 15.9809 26.7217 15.0909 26.7217C14.2009 26.7217 13.4797 27.4428 13.4797 28.3328V38.7413L2.50277 55.7712C-0.914885 61.0733 -0.825732 67.8658 2.72984 73.0764L9.71745 83.3167C10.7005 84.7573 11.2545 86.44 11.3194 88.1827L11.7471 99.65C11.7796 100.519 12.4941 101.201 13.3562 101.201C13.3764 101.201 13.3968 101.201 13.4172 101.2C14.3065 101.167 15.0004 100.419 14.9673 99.5302L14.5396 88.0628C14.452 85.7126 13.7048 83.4432 12.3791 81.5003L5.39152 71.2601C2.56764 67.1221 2.49697 61.7276 5.21107 57.517L13.4795 44.689V61.9644C13.4795 63.5188 13.988 65.0166 14.9042 66.2411L13.8112 67.4265C13.2079 68.0806 13.2494 69.1 13.9035 69.7032C14.5575 70.3064 15.5768 70.2654 16.1803 69.6108L33.1074 51.2545C33.9476 50.3436 35.3585 50.326 36.2256 51.1733C36.9233 51.8551 37.0806 52.9277 36.6084 53.7815L26.4323 72.1668C25.7232 73.4476 25.8663 75.0055 26.7965 76.1357C28.8199 78.5938 29.4249 81.988 28.3752 84.9936C27.877 86.4207 27.6064 87.9107 27.5711 89.4222L27.3756 97.8313C27.3548 98.7211 28.0594 99.4589 28.9488 99.4797C28.9617 99.4799 28.9744 99.4801 28.987 99.4801C29.8597 99.4801 30.5767 98.7832 30.5972 97.9065L30.7927 89.4974C30.8199 88.3228 31.0302 87.1651 31.4176 86.0559C32.8356 81.9951 32.0184 77.409 29.2844 74.0876C29.1999 73.9849 29.187 73.8438 29.2515 73.7273L31.8118 69.1015H71.9357V76.7568L66.807 74.2597C64.8076 73.2867 62.4471 73.7739 60.9328 75.473C58.9945 77.6483 59.0226 81.0269 60.997 83.1648L70.6496 93.6152C71.467 94.5 71.9357 95.7428 71.9357 97.0247V108.379C71.9357 109.269 72.6569 109.99 73.5469 109.99C74.4369 109.99 75.1581 109.269 75.1581 108.379V97.0247C75.1581 94.911 74.3976 92.9237 73.0167 91.4287L63.3642 80.9783C62.5307 80.076 62.5189 78.5366 63.3386 77.6169C63.8907 76.9974 64.6983 76.8169 65.3962 77.1568L72.8414 80.7817C73.9132 81.3061 75.1579 80.5102 75.1579 79.3332V51.767C75.1579 50.4113 76.0926 49.3084 77.2411 49.3084C78.3895 49.3084 79.324 50.4115 79.324 51.767V79.3332C79.324 80.2232 80.0452 80.9444 80.9352 80.9444C81.8252 80.9444 82.5464 80.2232 82.5464 79.3332V67.4168C82.5464 66.9515 83.0766 66.5584 83.7041 66.5584H85.555C86.1825 66.5584 86.7127 66.9515 86.7127 67.4168V79.3332C86.7127 80.2232 87.4339 80.9444 88.3239 80.9444C89.2139 80.9444 89.9351 80.2232 89.9351 79.3332V67.4168C89.9351 66.9515 90.465 66.5584 91.0925 66.5584H92.9437C93.5712 66.5584 94.1012 66.9515 94.1012 67.4168V79.3332C94.1012 80.2232 94.8223 80.9444 95.7124 80.9444C96.6024 80.9444 97.3235 80.2232 97.3235 79.3332V67.4168C97.3235 66.9515 97.8537 66.5584 98.4812 66.5584H100.332C100.96 66.5584 101.49 66.9515 101.49 67.4168V79.3332C101.49 79.4992 101.526 79.7085 101.578 79.8571L103.093 84.2641C103.447 85.2926 103.586 86.4166 103.494 87.5142C103.42 88.4009 104.08 89.1797 104.966 89.2536C105.012 89.2575 105.057 89.259 105.102 89.259C105.931 89.259 106.636 88.6226 106.706 87.7814C106.834 86.2424 106.639 84.6634 106.14 83.2159L104.712 79.064V68.8581C107.792 68.04 109.997 65.2527 109.997 61.9644V7.13692C109.996 3.20154 106.795 0 102.86 0ZM33.5955 65.8791L35.8836 61.7452H71.9359V65.8791H33.5955ZM77.2415 46.086C74.4114 46.086 72.0921 48.471 71.9437 51.4622H66.7703C66.1333 51.4622 65.6151 50.944 65.6151 50.3071V43.3657C65.6151 42.7287 66.1333 42.2105 66.7703 42.2105H74.0202C74.9102 42.2105 75.6314 41.4894 75.6314 40.5994C75.6314 39.7093 74.9102 38.9882 74.0202 38.9882H66.7703C64.3565 38.9882 62.3928 40.9519 62.3928 43.3657V50.3071C62.3928 52.7209 64.3565 54.6846 66.7703 54.6846H71.9357V58.5229H37.6671L39.4278 55.3417C40.6003 53.2227 40.2097 50.5608 38.4776 48.8684C36.3059 46.7462 32.8064 46.8271 30.7385 49.0699L26.4014 53.7733V10.5786H99.4183V58.5229H82.547V54.6846H88.3995C90.8133 54.6846 92.777 52.7209 92.777 50.3071V43.3657C92.777 40.9519 90.8133 38.9882 88.3995 38.9882H80.4626C79.5725 38.9882 78.8514 39.7093 78.8514 40.5994C78.8514 41.4894 79.5725 42.2105 80.4626 42.2105H88.3995C89.0364 42.2105 89.5546 42.7287 89.5546 43.3657V50.3071C89.5546 50.944 89.0364 51.4622 88.3995 51.4622H82.5391C82.3904 48.4708 80.0712 46.086 77.2415 46.086Z" fill="white"/>
<path d="M21.599 35.8612V33.2406C21.599 32.3506 20.8779 31.6294 19.9878 31.6294C19.0978 31.6294 18.3766 32.3506 18.3766 33.2406V35.8612C18.3766 36.7513 19.0978 37.4724 19.9878 37.4724C20.8779 37.4724 21.599 36.751 21.599 35.8612Z" fill="white"/>
<path d="M103.357 92.4147C102.602 91.9425 101.608 92.1713 101.136 92.9255L99.1612 96.0811C98.2679 97.5075 97.796 99.1731 97.796 100.897V108.379C97.796 109.269 98.5171 109.991 99.4071 109.991C100.297 109.991 101.018 109.269 101.018 108.379V100.897C101.018 99.7784 101.321 98.7043 101.892 97.7909L103.868 94.6353C104.34 93.8811 104.111 92.8869 103.357 92.4147Z" fill="white"/>
<path d="M65.6925 22.7311L48.5926 13.3213C47.9892 12.9896 47.2689 12.99 46.6645 13.3217L29.5653 22.7313C28.9267 23.083 28.5301 23.7545 28.5301 24.4834C28.5301 25.2123 28.9269 25.8841 29.5658 26.2359L34.8603 29.1494V40.3274C34.8603 41.6825 35.6698 42.8967 36.9224 43.4211C44.0269 46.3938 51.2311 46.3941 58.3362 43.4209C59.5886 42.8967 60.3979 41.6823 60.3979 40.3274V29.1494L65.6925 26.2357C66.3316 25.8841 66.7284 25.2125 66.7284 24.4834C66.7284 23.7543 66.3316 23.0825 65.6925 22.7311ZM57.1753 40.3274C57.1753 40.3798 57.1424 40.4273 57.0917 40.4483C50.7245 43.113 44.5337 43.1133 38.1665 40.4486C38.1156 40.4271 38.0825 40.3796 38.0825 40.3274V30.9226L46.6635 35.6444C46.9657 35.8109 47.2974 35.8943 47.6291 35.8943C47.9604 35.8943 48.2916 35.8111 48.5932 35.6451L52.6094 33.4349V36.9059C52.6094 37.7959 53.3306 38.5171 54.2206 38.5171C55.1106 38.5171 55.8318 37.7959 55.8318 36.9059V31.6618L57.1749 30.9228V40.3274H57.1753ZM54.4732 28.7314L48.7355 23.312C48.0886 22.701 47.0688 22.7298 46.4579 23.3771C45.8467 24.0239 45.8759 25.0437 46.523 25.6546L51.508 30.363L47.6289 32.4975C43.625 30.2942 37.6292 26.9949 33.065 24.4832L47.6289 16.4689L62.193 24.4832C60.2888 25.5313 56.3671 27.6892 54.4732 28.7314Z" fill="white"/>
<path d="M72.5656 24.572H84.6297C85.5198 24.572 86.2409 23.8508 86.2409 22.9608C86.2409 22.0708 85.5198 21.3496 84.6297 21.3496H72.5656C71.6756 21.3496 70.9544 22.0708 70.9544 22.9608C70.9544 23.8508 71.6758 24.572 72.5656 24.572Z" fill="white"/>
<path d="M94.8339 30.3524C94.8339 29.4624 94.1128 28.7412 93.2227 28.7412H72.5656C71.6756 28.7412 70.9544 29.4624 70.9544 30.3524C70.9544 31.2424 71.6756 31.9636 72.5656 31.9636H93.2227C94.1128 31.9636 94.8339 31.2424 94.8339 30.3524Z" fill="white"/>
</svg>
