<svg width="110" height="110" viewBox="0 0 110 110" fill="none" xmlns="http://www.w3.org/2000/svg">
<path d="M108.389 78.5854C109.279 78.5854 110.001 77.8641 110.001 76.974V47.5082C110.001 45.2608 108.172 43.4322 105.925 43.4322H101.093V38.318C101.093 36.6218 99.7132 35.2421 98.017 35.2421H70.5697C68.9135 33.0137 66.7706 31.1285 64.24 29.7552C62.7318 28.9368 61.795 27.3678 61.795 25.6602V17.8177H62.7182C64.455 17.8177 65.8681 16.4047 65.8681 14.6679V11.0009C65.8681 9.26411 64.455 7.85107 62.7182 7.85107H58.2217C57.3316 7.85107 56.6104 8.57231 56.6104 9.46241C56.6104 10.3525 57.3316 11.0738 58.2217 11.0738H62.6454V14.5951H47.3555V11.0738H51.7792C52.6691 11.0738 53.3905 10.3525 53.3905 9.46241C53.3905 8.57231 52.6691 7.85107 51.7792 7.85107H47.2827C45.5459 7.85107 44.1328 9.26411 44.1328 11.0009V14.6677C44.1328 16.4045 45.5459 17.8175 47.2827 17.8175H48.2056V25.6602C48.2056 27.3676 47.2689 28.9368 45.7609 29.7552C43.2303 31.1285 41.0874 33.0137 39.4312 35.2421H11.9838C10.2876 35.2421 8.90769 36.622 8.90769 38.318V43.4322H4.07604C1.82855 43.4322 0 45.2608 0 47.5082V95.4477C0 101.018 4.53173 105.55 10.1018 105.55H45.6997C46.327 105.55 46.4555 106.111 46.5352 106.296L46.9353 107.229C47.4799 108.891 49.0057 110.001 50.764 110.001H59.2369C60.9952 110.001 62.5208 108.891 63.0656 107.229C63.4687 106.281 63.4839 106.272 63.5278 106.125C63.6311 105.781 63.942 105.55 64.301 105.55H99.8989C105.469 105.55 110.001 101.018 110.001 95.4477V83.4166C110.001 82.5265 109.279 81.8053 108.389 81.8053C107.499 81.8053 106.778 82.5265 106.778 83.4166V95.4477C106.778 99.2408 103.692 102.327 99.8989 102.327H64.301C62.5427 102.327 61.0169 103.437 60.4722 105.099C60.0677 106.051 60.0552 106.053 60.0101 106.203C59.9067 106.547 59.5959 106.778 59.2369 106.778H50.764C50.405 106.778 50.0941 106.547 49.9908 106.203C49.9455 106.053 49.9214 106.023 49.5287 105.1C48.984 103.437 47.4582 102.327 45.6997 102.327H10.1018C6.30871 102.327 3.22268 99.241 3.22268 95.4477V47.5082C3.22268 47.0377 3.60553 46.6549 4.07604 46.6549H8.90748V93.1474C8.90748 94.8436 10.2874 96.2233 11.9836 96.2233H20.3617C21.2516 96.2233 21.9731 95.5021 21.9731 94.612C21.9731 93.7219 21.2516 93.0006 20.3617 93.0006H12.1304V38.4648H37.4918C36.2886 40.9881 35.634 43.7708 35.6069 46.6267H21.2585C20.3686 46.6267 19.6472 47.348 19.6472 48.2381C19.6472 49.1282 20.3686 49.8494 21.2585 49.8494H35.8435C36.1488 51.7772 36.7415 53.6384 37.5955 55.3742H21.2585C20.3686 55.3742 19.6472 56.0954 19.6472 56.9855C19.6472 57.8756 20.3686 58.5968 21.2585 58.5968H39.5966C40.3986 59.6446 41.3108 60.6179 42.3275 61.496C43.2045 62.2535 44.3264 62.6707 45.4864 62.6707H53.389V89.0857C53.389 91.2445 51.6326 93.0008 49.4739 93.0008H26.8043C25.9144 93.0008 25.1929 93.7221 25.1929 94.6122C25.1929 95.5023 25.9144 96.2235 26.8043 96.2235H49.4741C51.6999 96.2235 53.6904 95.1989 55.0006 93.5972C56.3107 95.1989 58.3012 96.2235 60.527 96.2235H98.017C99.7135 96.2235 101.093 94.8436 101.093 93.1474V46.6549H105.925C106.395 46.6549 106.778 47.0375 106.778 47.5082V76.974C106.778 77.8641 107.499 78.5854 108.389 78.5854ZM47.2977 32.5877C49.8456 31.2052 51.4283 28.551 51.4283 25.6604V17.8177H58.5723V25.6604C58.5723 28.5508 60.1551 31.2054 62.703 32.5877C66.2984 34.5387 68.9565 37.7274 70.2653 41.4612C65.6734 42.4592 59.9106 42.9759 55.7368 40.8324C49.5448 37.6514 43.8262 38.4598 40.6298 39.3905C42.0929 36.5572 44.3878 34.1666 47.2977 32.5877ZM44.4343 59.0572C40.8704 55.9792 38.8264 51.5155 38.8264 46.8113C38.8264 45.6337 38.9559 44.4759 39.2015 43.3534C41.0779 42.4538 47.236 40.0886 54.2643 43.6988C56.8905 45.0476 59.9452 45.5377 62.999 45.5377C65.7832 45.5377 68.5665 45.1301 71.0224 44.5943C71.123 45.3228 71.1747 46.0632 71.1747 46.8113C71.1747 51.5155 69.1307 55.9789 65.5666 59.0572C65.2749 59.3093 64.901 59.448 64.5145 59.448H45.4868C45.0998 59.448 44.726 59.3093 44.4343 59.0572ZM97.8705 93.0008H60.5268C58.368 93.0008 56.6117 91.2445 56.6117 89.0857V62.6707H64.5141C65.6738 62.6707 66.7958 62.2537 67.6728 61.496C68.6896 60.6179 69.6019 59.6446 70.4037 58.5968H88.742C89.6321 58.5968 90.3533 57.8756 90.3533 56.9855C90.3533 56.0954 89.6321 55.3742 88.742 55.3742H72.4049C73.2592 53.6386 73.8517 51.7772 74.157 49.8494H88.7422C89.6323 49.8494 90.3535 49.1282 90.3535 48.2381C90.3535 47.348 89.6323 46.6267 88.7422 46.6267H74.394C74.3671 43.7833 73.729 41.0229 72.5091 38.4648H97.8705V93.0008Z" fill="#1A3788"/>
<path d="M53.389 100.653V101.622C53.389 102.512 54.1104 103.233 55.0003 103.233C55.8902 103.233 56.6117 102.512 56.6117 101.622V100.653C56.6117 99.7627 55.8902 99.0415 55.0003 99.0415C54.1104 99.0415 53.389 99.763 53.389 100.653Z" fill="#1A3788"/>
<path d="M21.2585 67.3438H44.2606C45.1505 67.3438 45.872 66.6225 45.872 65.7324C45.872 64.8423 45.1505 64.1211 44.2606 64.1211H21.2585C20.3686 64.1211 19.6471 64.8423 19.6471 65.7324C19.6471 66.6225 20.3686 67.3438 21.2585 67.3438Z" fill="#1A3788"/>
<path d="M21.2585 76.0913H44.2606C45.1505 76.0913 45.872 75.3701 45.872 74.48C45.872 73.5899 45.1505 72.8687 44.2606 72.8687H21.2585C20.3686 72.8687 19.6471 73.5899 19.6471 74.48C19.6471 75.3701 20.3686 76.0913 21.2585 76.0913Z" fill="#1A3788"/>
<path d="M21.2585 84.8386H44.2606C45.1505 84.8386 45.872 84.1174 45.872 83.2273C45.872 82.3372 45.1505 81.616 44.2606 81.616H21.2585C20.3686 81.616 19.6471 82.3372 19.6471 83.2273C19.6471 84.1174 20.3686 84.8386 21.2585 84.8386Z" fill="#1A3788"/>
<path d="M88.7422 64.1211H65.74C64.8499 64.1211 64.1287 64.8423 64.1287 65.7324C64.1287 66.6225 64.8499 67.3438 65.74 67.3438H88.7422C89.6323 67.3438 90.3535 66.6225 90.3535 65.7324C90.3535 64.8423 89.6323 64.1211 88.7422 64.1211Z" fill="#1A3788"/>
<path d="M88.7422 72.8687H65.74C64.8499 72.8687 64.1287 73.5899 64.1287 74.48C64.1287 75.3701 64.8499 76.0913 65.74 76.0913H88.7422C89.6323 76.0913 90.3535 75.3701 90.3535 74.48C90.3535 73.5899 89.6323 72.8687 88.7422 72.8687Z" fill="#1A3788"/>
<path d="M88.7422 81.616H65.74C64.8499 81.616 64.1287 82.3372 64.1287 83.2273C64.1287 84.1174 64.8499 84.8386 65.74 84.8386H88.7422C89.6323 84.8386 90.3535 84.1174 90.3535 83.2273C90.3535 82.3372 89.6323 81.616 88.7422 81.616Z" fill="#1A3788"/>
<path d="M49.4197 6.339C50.3096 6.339 51.0311 5.61777 51.0311 4.72767V1.61134C51.0311 0.721235 50.3096 0 49.4197 0C48.5298 0 47.8084 0.721235 47.8084 1.61134V4.72767C47.8084 5.61755 48.5298 6.339 49.4197 6.339Z" fill="#1A3788"/>
<path d="M55.0003 6.339C55.8902 6.339 56.6117 5.61777 56.6117 4.72767V1.61134C56.6117 0.721235 55.8902 0 55.0003 0C54.1104 0 53.389 0.721235 53.389 1.61134V4.72767C53.389 5.61755 54.1104 6.339 55.0003 6.339Z" fill="#1A3788"/>
<path d="M60.5809 6.339C61.471 6.339 62.1923 5.61777 62.1923 4.72767V1.61134C62.1923 0.721235 61.471 0 60.5809 0C59.6908 0 58.9696 0.721235 58.9696 1.61134V4.72767C58.9696 5.61755 59.6911 6.339 60.5809 6.339Z" fill="#1A3788"/>
<path d="M46.6119 47.5292C47.3954 47.1073 47.6885 46.1299 47.2663 45.3466L47.0149 44.8798C46.593 44.0962 45.6154 43.8032 44.8321 44.2253C44.0486 44.6473 43.7555 45.6246 44.1777 46.408L44.4291 46.8748C44.8519 47.6596 45.8301 47.9505 46.6119 47.5292Z" fill="#1A3788"/>
<path d="M66.9412 49.8961L67.1196 49.4292C67.4373 48.5978 67.0207 47.6664 66.1895 47.3489C65.358 47.0309 64.4267 47.4477 64.1092 48.279L63.9308 48.7458C63.6131 49.5773 64.0297 50.5086 64.8609 50.8262C65.6939 51.1448 66.6243 50.7254 66.9412 49.8961Z" fill="#1A3788"/>
<path d="M57.6122 52.8139C57.5428 51.9266 56.7681 51.2612 55.8801 51.3329C54.993 51.4023 54.33 52.1779 54.3994 53.065L54.4359 53.5319C54.5053 54.4198 55.282 55.0822 56.168 55.0128C57.0551 54.9434 57.7181 54.1678 57.6489 53.2807L57.6122 52.8139Z" fill="#1A3788"/>
<path d="M47.9276 53.298C47.5059 52.5142 46.5281 52.2207 45.745 52.6431C44.9615 53.0651 44.6682 54.0422 45.0902 54.8257L45.3415 55.2926C45.6324 55.8333 46.1878 56.1401 46.7617 56.1401C47.0195 56.1401 47.2812 56.0783 47.5241 55.9474C48.3077 55.5255 48.601 54.5484 48.179 53.7648L47.9276 53.298Z" fill="#1A3788"/>
</svg>
