<svg width="342" height="935" viewBox="0 0 342 935" fill="none" xmlns="http://www.w3.org/2000/svg">
<g opacity="0.3">
<path d="M683 426.533V0H0V426.533C0 739.066 341.5 934.495 341.5 934.495C341.5 934.495 683 739.066 683 426.533ZM341.5 896.495C290.758 864.699 34.6333 692.535 34.6333 426.533V33.3472H648.367V426.533C648.367 691.759 392.242 863.924 341.5 896.495Z" fill="white"/>
<path d="M370.485 749.916H400.285C397.064 781.712 372.901 796.447 343.906 796.447C306.856 796.447 282.693 771.631 282.693 737.508C282.693 698.732 309.272 675.467 343.906 675.467C374.512 675.467 396.258 690.201 399.48 720.447H368.874C366.458 707.263 358.403 700.283 344.711 700.283C326.992 700.283 316.521 712.692 316.521 735.182C316.521 761.549 326.992 772.406 345.517 772.406C358.403 772.406 368.874 764.651 370.485 749.916Z" fill="white"/>
<path d="M522.697 354.409C488.064 354.409 459.069 376.123 442.96 393.185H383.359L451.014 328.041C474.372 328.817 510.616 324.164 535.584 300.898C575.05 263.674 562.163 197.755 562.163 197.755C562.163 197.755 494.507 185.347 455.042 223.347C430.879 245.837 426.852 281.511 426.852 304.776L359.196 369.919V261.347C375.305 245.837 399.467 217.918 399.467 184.571C399.467 131.836 341.477 93.8359 341.477 93.8359C341.477 93.8359 284.292 132.612 284.292 184.571C284.292 217.918 306.844 245.837 324.563 261.347V369.919L256.907 304.776C256.907 282.286 252.88 246.612 228.717 223.347C189.252 185.347 121.596 197.755 121.596 197.755C121.596 197.755 108.709 263.674 147.37 300.898C171.532 324.164 208.582 328.817 232.744 328.041L300.4 393.185H240.799C223.885 376.899 194.89 354.409 161.062 354.409C105.487 354.409 66.0216 410.246 66.0216 410.246C66.0216 410.246 106.293 465.307 161.062 465.307C195.695 465.307 224.69 443.593 240.799 426.532H318.925L302.011 539.757C297.178 571.553 273.016 582.41 266.572 584.736H244.826V618.084H438.933V584.736H416.381C409.938 582.41 385.775 571.553 380.943 539.757L364.029 426.532H442.96C459.069 442.817 487.259 465.307 522.697 465.307C575.855 465.307 617.737 410.246 617.737 410.246C617.737 410.246 576.661 354.409 522.697 354.409ZM479.204 246.612C492.897 233.429 514.643 229.551 529.141 228.775C528.335 242.735 524.308 264.449 510.616 276.857C496.924 290.041 475.177 293.919 460.68 294.694C461.485 280.735 464.707 259.021 479.204 246.612ZM170.727 276.857C157.035 263.674 153.813 242.735 153.007 228.775C167.505 229.551 189.252 233.429 202.944 246.612C216.636 259.796 219.858 280.735 220.663 294.694C206.165 293.919 184.419 290.041 170.727 276.857ZM159.451 431.185C140.121 431.185 121.596 418.777 111.125 409.47C121.596 399.389 140.121 387.756 159.451 387.756C178.781 387.756 196.5 400.164 207.776 409.47C196.5 419.552 178.781 431.185 159.451 431.185ZM318.12 183.796C318.12 165.183 331.812 148.122 340.671 137.265C351.142 148.122 363.223 165.183 363.223 183.796C363.223 203.184 350.337 220.245 340.671 231.102C331.006 220.245 318.12 202.408 318.12 183.796ZM340.671 584.736H318.12C333.423 563.022 333.423 544.41 338.255 506.41H343.088C347.92 544.41 347.115 563.022 363.223 584.736H340.671ZM522.697 431.185C503.367 431.185 484.842 418.777 474.372 409.47C484.842 400.164 503.367 387.756 522.697 387.756C542.028 387.756 559.747 400.164 571.023 409.47C559.747 419.552 542.028 431.185 522.697 431.185Z" fill="white"/>
</g>
</svg>
