<svg width="118" height="118" viewBox="0 0 118 118" fill="none" xmlns="http://www.w3.org/2000/svg">
<mask id="path-1-inside-1" fill="white">
<path fill-rule="evenodd" clip-rule="evenodd" d="M59 117.924C91.5427 117.924 117.924 91.5427 117.924 59C117.924 26.4573 91.5427 0.0761719 59 0.0761719C26.4573 0.0761719 0.0761719 26.4573 0.0761719 59C0.0761719 91.5427 26.4573 117.924 59 117.924ZM45.6297 80.804L84.2521 58.5054L45.6297 36.2067L45.6297 80.804Z"/>
</mask>
<path fill-rule="evenodd" clip-rule="evenodd" d="M59 117.924C91.5427 117.924 117.924 91.5427 117.924 59C117.924 26.4573 91.5427 0.0761719 59 0.0761719C26.4573 0.0761719 0.0761719 26.4573 0.0761719 59C0.0761719 91.5427 26.4573 117.924 59 117.924ZM45.6297 80.804L84.2521 58.5054L45.6297 36.2067L45.6297 80.804Z" fill="white"/>
<path d="M84.2521 58.5054L85.2521 60.2374L88.2521 58.5054L85.2521 56.7733L84.2521 58.5054ZM45.6297 80.804H43.6297V84.2681L46.6297 82.536L45.6297 80.804ZM45.6297 36.2067L46.6297 34.4747L43.6297 32.7426V36.2067H45.6297ZM115.924 59C115.924 90.4381 90.4381 115.924 59 115.924V119.924C92.6473 119.924 119.924 92.6473 119.924 59H115.924ZM59 2.07617C90.4381 2.07617 115.924 27.5618 115.924 59H119.924C119.924 25.3527 92.6473 -1.92383 59 -1.92383V2.07617ZM2.07617 59C2.07617 27.5618 27.5618 2.07617 59 2.07617V-1.92383C25.3527 -1.92383 -1.92383 25.3527 -1.92383 59H2.07617ZM59 115.924C27.5618 115.924 2.07617 90.4381 2.07617 59H-1.92383C-1.92383 92.6473 25.3527 119.924 59 119.924V115.924ZM83.2521 56.7733L44.6297 79.0719L46.6297 82.536L85.2521 60.2374L83.2521 56.7733ZM44.6297 37.9388L83.2521 60.2374L85.2521 56.7733L46.6297 34.4747L44.6297 37.9388ZM47.6297 80.804L47.6297 36.2067H43.6297L43.6297 80.804H47.6297Z" fill="white" mask="url(#path-1-inside-1)"/>
</svg>
