<svg width="112" height="112" viewBox="0 0 112 112" fill="none" xmlns="http://www.w3.org/2000/svg">
<path d="M39.6729 60.1215C41.355 61.3296 42.6633 63.0023 43.456 64.959L45.232 69.342C43.7648 70.3023 42.7929 71.9594 42.7929 73.84C42.7929 76.5061 44.745 78.7239 47.2946 79.1417C47.9125 83.3975 51.5839 86.6772 56.008 86.6772C60.4323 86.6772 64.1036 83.3973 64.7214 79.1417C67.271 78.7239 69.2232 76.5061 69.2232 73.84C69.2232 71.9594 68.2513 70.3023 66.7841 69.342L68.5596 64.9601C69.346 63.0193 70.6897 61.3206 72.4458 60.0476C79.7064 54.7837 84.0412 46.2938 84.0412 37.3373C84.0412 29.772 81.0733 22.6808 75.6846 17.3699C70.2966 12.0601 63.1614 9.18986 55.5902 9.30717C48.2738 9.41375 41.3784 12.3483 36.1748 17.5695C30.9711 22.7906 28.0598 29.6959 27.977 37.0129C27.8733 46.1487 32.2455 54.7877 39.6729 60.1215ZM56.008 83.3947C53.4253 83.3947 51.2508 81.6126 50.6496 79.2137H61.3666C60.7652 81.6126 58.5907 83.3947 56.008 83.3947ZM63.8499 75.9307H63.173H48.8432H48.1663C47.0134 75.9307 46.0756 74.993 46.0756 73.84C46.0756 72.6871 47.0134 71.7493 48.1663 71.7493H63.8499C65.0026 71.7493 65.9404 72.6871 65.9404 73.84C65.9404 74.993 65.0026 75.9307 63.8499 75.9307ZM38.4999 19.8869C43.0958 15.2755 49.1822 12.6838 55.6379 12.5895C62.3206 12.4993 68.6233 15.0201 73.38 19.7081C78.1379 24.397 80.7582 30.6579 80.7582 37.3373C80.7582 45.2453 76.9303 52.7414 70.5186 57.3896C68.2639 59.0244 66.5344 61.2158 65.5169 63.7273L63.5967 68.4666H48.4191L46.4985 63.7262C45.4725 61.1939 43.7742 59.0253 41.5876 57.455C35.0289 52.7449 31.1679 45.1168 31.2591 37.0502C31.3325 30.5938 33.9038 24.4983 38.4999 19.8869Z" fill="white"/>
<path d="M92.4468 93.0065H98.8291C99.7356 93.0065 100.471 92.2718 100.471 91.3651V34.573C100.471 33.6663 99.7356 32.9316 98.8291 32.9316H91.0391C90.1326 32.9316 89.3977 33.6663 89.3977 34.573C89.3977 35.4797 90.1326 36.2144 91.0391 36.2144H97.1877V89.7237H92.4468C91.5403 89.7237 90.8054 90.4584 90.8054 91.3651C90.8054 92.2718 91.5403 93.0065 92.4468 93.0065Z" fill="white"/>
<path d="M22.6035 34.573C22.6035 33.6663 21.8685 32.9316 20.9621 32.9316H13.172C12.2655 32.9316 11.5306 33.6663 11.5306 34.573V91.3651C11.5306 92.2718 12.2655 93.0065 13.172 93.0065H85.4518C86.3583 93.0065 87.0932 92.2718 87.0932 91.3651C87.0932 90.4584 86.3583 89.7237 85.4518 89.7237H14.8134V36.2144H20.9621C21.8685 36.2144 22.6035 35.4795 22.6035 34.573Z" fill="white"/>
<path d="M110.36 96.2904H107.036V34.3078C107.036 29.9292 103.474 26.3672 99.0953 26.3672H91.0389C90.1324 26.3672 89.3975 27.1019 89.3975 28.0086C89.3975 28.9153 90.1324 29.65 91.0389 29.65H99.0953C101.664 29.65 103.753 31.7396 103.753 34.3078V96.2904H30.0751C29.1686 96.2904 28.4337 97.0251 28.4337 97.9318C28.4337 98.8385 29.1686 99.5732 30.0751 99.5732H108.718V105.309C108.718 107.078 107.279 108.517 105.51 108.517H6.49137C4.72217 108.517 3.28278 107.078 3.28278 105.309V99.5732H23.0801C23.9866 99.5732 24.7215 98.8385 24.7215 97.9318C24.7215 97.0251 23.9866 96.2904 23.0801 96.2904H8.24809V34.3078C8.24809 31.7396 10.3375 29.65 12.9059 29.65H20.9621C21.8686 29.65 22.6035 28.9153 22.6035 28.0086C22.6035 27.1019 21.8686 26.3672 20.9621 26.3672H12.9059C8.52735 26.3672 4.96531 29.9292 4.96531 34.3078V96.2904H1.64139C0.734905 96.2904 0 97.0251 0 97.9318V105.309C0 108.888 2.91204 111.8 6.49137 111.8H105.51C109.089 111.8 112.001 108.888 112.001 105.309V97.9318C112.001 97.0251 111.266 96.2904 110.36 96.2904Z" fill="white"/>
<path d="M40.9149 49.3684C40.9149 53.058 43.9166 56.06 47.6065 56.06C51.2963 56.06 54.2981 53.058 54.2981 49.3684V38.071C54.2981 37.1643 53.5632 36.4296 52.6567 36.4296C51.7502 36.4296 51.0153 37.1643 51.0153 38.071V49.3684C51.0153 51.2481 49.4862 52.7772 47.6065 52.7772C45.7268 52.7772 44.1977 51.2481 44.1977 49.3684V46.2336C44.1977 45.0196 43.21 44.0319 41.996 44.0319C39.9029 44.0319 38.2 42.329 38.2 40.2357C38.2 38.1428 39.9029 36.4399 41.996 36.4399H42.5123C43.2914 36.4581 43.9913 35.9307 44.1637 35.1551C44.3476 34.3269 43.8703 33.4951 43.0623 33.2359C42.0396 32.9083 41.3524 31.9664 41.3524 30.8925C41.3524 28.2284 43.5196 26.0611 46.1837 26.0611C48.8478 26.0611 51.0151 28.2284 51.0151 30.8925V31.0757C51.0151 31.9824 51.75 32.717 52.6565 32.717C53.563 32.717 54.2979 31.9824 54.2979 31.0757V30.8925C54.2979 26.4183 50.6579 22.7783 46.1837 22.7783C41.7095 22.7783 38.0696 26.4183 38.0696 30.8925C38.0696 31.9729 38.3674 32.9959 38.8977 33.8717C36.5429 35.0226 34.9172 37.4427 34.9172 40.2355C34.9172 43.7713 37.5231 46.7098 40.9149 47.232V49.3684Z" fill="white"/>
<path d="M64.6136 56.06C68.3033 56.06 71.3053 53.058 71.3053 49.3684V47.2322C74.6972 46.71 77.3029 43.7715 77.3029 40.2359C77.3029 37.441 75.6751 35.0194 73.3176 33.8693C73.8461 33.0005 74.1505 31.9815 74.1505 30.8925C74.1505 26.4183 70.5106 22.7783 66.0364 22.7783C61.5622 22.7783 57.9222 26.4183 57.9222 30.8925V49.3682C57.922 53.058 60.9238 56.06 64.6136 56.06ZM61.2048 30.8927C61.2048 28.2286 63.3721 26.0613 66.0362 26.0613C68.7003 26.0613 70.8676 28.2286 70.8676 30.8927C70.8676 31.9773 70.1624 32.9004 69.1865 33.2276C69.1684 33.2329 69.1504 33.2388 69.1327 33.2449C68.9029 33.316 68.6587 33.3543 68.4059 33.3543C67.4994 33.3543 66.7645 34.089 66.7645 34.9957C66.7645 35.9024 67.4994 36.6371 68.4059 36.6371C68.9228 36.6371 69.424 36.5686 69.9009 36.4399H70.2239C72.317 36.4399 74.0199 38.1428 74.0199 40.2361C74.0199 42.329 72.317 44.0321 70.2239 44.0321C69.0099 44.0321 68.0223 45.0198 68.0223 46.2338V49.3686C68.0223 51.2483 66.4931 52.7774 64.6134 52.7774C62.7337 52.7774 61.2046 51.2483 61.2046 49.3686V30.8927H61.2048Z" fill="white"/>
<path d="M17.7708 53.9334C17.7708 54.8401 18.5057 55.5748 19.4121 55.5748H25.0966C26.0031 55.5748 26.738 54.8401 26.738 53.9334C26.738 53.0267 26.0031 52.292 25.0966 52.292H19.4121C18.5057 52.292 17.7708 53.0269 17.7708 53.9334Z" fill="white"/>
<path d="M33.7432 61.2637H19.4121C18.5057 61.2637 17.7708 61.9984 17.7708 62.9051C17.7708 63.8118 18.5057 64.5465 19.4121 64.5465H33.743C34.6495 64.5465 35.3844 63.8118 35.3844 62.9051C35.3844 61.9984 34.6497 61.2637 33.7432 61.2637Z" fill="white"/>
<path d="M36.5585 70.2334H19.4121C18.5057 70.2334 17.7708 70.9681 17.7708 71.8748C17.7708 72.7815 18.5057 73.5162 19.4121 73.5162H36.5585C37.465 73.5162 38.1999 72.7815 38.1999 71.8748C38.1999 70.9681 37.465 70.2334 36.5585 70.2334Z" fill="white"/>
<path d="M17.7708 80.8455C17.7708 81.7522 18.5057 82.4869 19.4121 82.4869H39.9078C40.8143 82.4869 41.5492 81.7522 41.5492 80.8455C41.5492 79.9388 40.8143 79.2041 39.9078 79.2041H19.4121C18.5057 79.2041 17.7708 79.939 17.7708 80.8455Z" fill="white"/>
<path d="M86.9192 55.5748H92.6037C93.5102 55.5748 94.2451 54.8401 94.2451 53.9334C94.2451 53.0267 93.5102 52.292 92.6037 52.292H86.9192C86.0127 52.292 85.2778 53.0267 85.2778 53.9334C85.2778 54.8401 86.0127 55.5748 86.9192 55.5748Z" fill="white"/>
<path d="M92.6037 64.5465C93.5102 64.5465 94.2451 63.8118 94.2451 62.9051C94.2451 61.9984 93.5102 61.2637 92.6037 61.2637H78.2726C77.3661 61.2637 76.6312 61.9984 76.6312 62.9051C76.6312 63.8118 77.3661 64.5465 78.2726 64.5465H92.6037Z" fill="white"/>
<path d="M73.8159 71.8748C73.8159 72.7815 74.5508 73.5162 75.4573 73.5162H92.6037C93.5102 73.5162 94.2451 72.7815 94.2451 71.8748C94.2451 70.9681 93.5102 70.2334 92.6037 70.2334H75.4573C74.5508 70.2334 73.8159 70.9681 73.8159 71.8748Z" fill="white"/>
<path d="M94.245 80.8455C94.245 79.9388 93.5101 79.2041 92.6036 79.2041H72.1079C71.2015 79.2041 70.4666 79.9388 70.4666 80.8455C70.4666 81.7522 71.2015 82.4869 72.1079 82.4869H92.6036C93.5101 82.4869 94.245 81.7522 94.245 80.8455Z" fill="white"/>
<path d="M56.0005 5.49712C56.907 5.49712 57.6419 4.76244 57.6419 3.85573V1.64139C57.6419 0.734686 56.907 0 56.0005 0C55.094 0 54.3591 0.734686 54.3591 1.64139V3.85573C54.3591 4.76244 55.094 5.49712 56.0005 5.49712Z" fill="white"/>
<path d="M37.8638 6.56916C38.0649 7.29662 38.7252 7.77372 39.445 7.77372C39.5899 7.77372 39.7369 7.75446 39.8834 7.71397C40.757 7.47236 41.2696 6.5685 41.028 5.69463L40.4379 3.56017C40.1963 2.68629 39.292 2.17308 38.4184 2.41557C37.5447 2.65718 37.0322 3.56104 37.2738 4.43492L37.8638 6.56916Z" fill="white"/>
<path d="M71.3444 7.71322C71.4908 7.75392 71.6379 7.77296 71.7828 7.77296C72.5026 7.77296 73.1628 7.29587 73.364 6.5684L73.954 4.43394C74.1956 3.56028 73.6831 2.65621 72.8094 2.41459C71.9353 2.17211 71.0314 2.68531 70.7898 3.55919L70.1998 5.69365C69.9582 6.56775 70.4705 7.4716 71.3444 7.71322Z" fill="white"/>
</svg>
