<svg width="110" height="110" viewBox="0 0 110 110" fill="none" xmlns="http://www.w3.org/2000/svg">
<path d="M98.1172 10.0586H95.3561C94.465 10.0586 93.7425 10.7812 93.7425 11.6726C93.7425 12.5639 94.465 13.2866 95.3561 13.2866H98.1172C102.89 13.2866 106.773 17.1702 106.773 21.9437V78.3271H3.22732V21.9437C3.22732 17.1702 7.11022 13.2866 11.8828 13.2866H14.6439C15.535 13.2866 16.2575 12.5639 16.2575 11.6726C16.2575 10.7812 15.535 10.0586 14.6439 10.0586H11.8828C5.33046 10.0586 0 15.3901 0 21.9437V83.936C0 89.6174 4.62131 94.2394 10.3016 94.2394H40.4826V99.5449H40.1231C37.2349 99.5449 34.885 101.895 34.885 104.784V106.772H31.9937C31.1025 106.772 30.3801 107.495 30.3801 108.386C30.3801 109.277 31.1025 110 31.9937 110H78.0549C78.9461 110 79.6685 109.277 79.6685 108.386C79.6685 107.495 78.9461 106.772 78.0549 106.772H75.115V104.784C75.115 101.895 72.7653 99.5449 69.8769 99.5449H69.5173V94.2394H99.6984C105.379 94.2394 110 89.6172 110 83.936V21.9437C110 15.3901 104.669 10.0586 98.1172 10.0586ZM71.8877 104.784V106.772H38.1123V104.784C38.1123 103.675 39.0142 102.773 40.1231 102.773H69.8769C70.9855 102.773 71.8877 103.675 71.8877 104.784ZM66.29 99.5449H43.71V94.2394H66.29V99.5449ZM99.6984 91.0114H10.3016C6.40085 91.0114 3.22732 87.8373 3.22732 83.936V81.555H106.773V83.936C106.773 87.8375 103.599 91.0114 99.6984 91.0114Z" fill="white"/>
<path d="M21.0987 52.3753C20.2076 52.3753 19.4851 53.098 19.4851 53.9893V71.8709H11.8828C10.6693 71.8709 9.68197 70.8834 9.68197 69.6696V21.9434C9.68197 20.7297 10.6693 19.7422 11.8828 19.7422H14.6439C15.535 19.7422 16.2575 19.0196 16.2575 18.1282C16.2575 17.2369 15.535 16.5142 14.6439 16.5142H11.8828C8.88977 16.5142 6.45465 18.9496 6.45465 21.9434V69.6696C6.45465 72.6632 8.88977 75.0988 11.8828 75.0988H98.1172C101.11 75.0988 103.545 72.6632 103.545 69.6696V21.9434C103.545 18.9498 101.11 16.5142 98.1172 16.5142H95.3561C94.465 16.5142 93.7425 17.2369 93.7425 18.1282C93.7425 19.0196 94.465 19.7422 95.3561 19.7422H98.1172C99.3307 19.7422 100.318 20.7297 100.318 21.9434V69.6696C100.318 70.8834 99.3307 71.8709 98.1172 71.8709H90.5152V15.9437C90.5152 15.5157 90.3452 15.1051 90.0425 14.8025L75.7153 0.472788C75.4128 0.170006 75.0023 0 74.5743 0H22.6857C20.9208 0 19.4851 1.43601 19.4851 3.20127V47.111C19.4851 48.0023 20.2076 48.7249 21.0987 48.7249C21.9899 48.7249 22.7124 48.0023 22.7124 47.111V3.22796H72.9504V14.5598C72.9504 16.2071 74.2903 17.5474 75.9374 17.5474H87.2876V71.8709H78.0153V62.6839C78.0153 61.7926 77.2928 61.0699 76.4017 61.0699C75.5105 61.0699 74.788 61.7926 74.788 62.6839V71.8709H69.5171V43.9398H74.788V55.8056C74.788 56.6969 75.5105 57.4195 76.4017 57.4195C77.2928 57.4195 78.0153 56.6969 78.0153 55.8056V36.1585C78.0153 35.8592 77.9321 35.5658 77.775 35.3111L69.6725 22.1769C69.291 21.5587 68.6296 21.1896 67.9033 21.1898C67.1771 21.1898 66.5157 21.5591 66.1345 22.1771L58.032 35.3113C57.8749 35.5661 57.7916 35.8594 57.7916 36.1587V71.8711H52.0459V29.369C52.0459 28.4777 51.3234 27.755 50.4323 27.755C49.5411 27.755 48.8186 28.4777 48.8186 29.369V71.8709H34.8622V66.5531H36.8476C37.7388 66.5531 38.4613 65.8305 38.4613 64.9392C38.4613 64.0478 37.7388 63.3252 36.8476 63.3252H34.8622V58.7514H36.8476C37.7388 58.7514 38.4613 58.0288 38.4613 57.1374C38.4613 56.2461 37.7388 55.5234 36.8476 55.5234H34.8622V50.9496H36.8476C37.7388 50.9496 38.4613 50.227 38.4613 49.3357C38.4613 48.4443 37.7388 47.7217 36.8476 47.7217H34.8622V43.1479H36.8476C37.7388 43.1479 38.4613 42.4253 38.4613 41.5339C38.4613 40.6426 37.7388 39.9199 36.8476 39.9199H34.8622V35.3461H36.8476C37.7388 35.3461 38.4613 34.6235 38.4613 33.7321C38.4613 32.8408 37.7388 32.1182 36.8476 32.1182H34.8622V27.5444H36.8476C37.7388 27.5444 38.4613 26.8217 38.4613 25.9304C38.4613 25.039 37.7388 24.3164 36.8476 24.3164H34.8622V19.7422H36.8476C37.7388 19.7422 38.4613 19.0196 38.4613 18.1282C38.4613 17.2369 37.7388 16.5142 36.8476 16.5142H34.8622V11.1354H48.8186V22.4907C48.8186 23.382 49.5411 24.1047 50.4323 24.1047C51.3234 24.1047 52.0459 23.382 52.0459 22.4907V10.8018C52.0459 9.20592 50.7479 7.90763 49.1523 7.90763H34.5285C32.9329 7.90763 31.6349 9.20592 31.6349 10.8018V71.8709H22.7122V53.9893C22.7124 53.098 21.9899 52.3753 21.0987 52.3753ZM76.1777 5.50001L84.9954 14.3194H76.1777V5.50001ZM61.0192 40.7119V37.7723H74.7882V40.7119H61.0192ZM67.9037 25.4565L73.51 34.5445H62.2972L67.9037 25.4565ZM61.0192 43.9398H66.29V71.8707H61.0192V43.9398Z" fill="white"/>
<path d="M55.0243 88.2709C56.2126 88.2709 57.1758 87.3076 57.1758 86.1193C57.1758 84.9311 56.2126 83.9678 55.0243 83.9678C53.836 83.9678 52.8727 84.9311 52.8727 86.1193C52.8727 87.3076 53.836 88.2709 55.0243 88.2709Z" fill="white"/>
</svg>
