<svg width="116" height="116" viewBox="0 0 116 116" fill="none" xmlns="http://www.w3.org/2000/svg">
<path d="M33.1234 66.0149C33.1234 67.2353 33.9783 68.3156 35.2508 68.7027C37.3057 69.328 39.3667 69.8633 41.4315 70.3152V73.9349C39.2893 74.28 37.6464 76.1366 37.6464 78.3746V81.766C37.6464 83.257 38.8594 84.4699 40.3501 84.4699H45.8696C47.3605 84.4699 48.5735 83.257 48.5735 81.766V78.3746C48.5735 76.1366 46.9304 74.2802 44.7884 73.9351V70.9745C49.0345 71.709 53.2916 72.0787 57.5402 72.0787C60.559 72.0787 63.574 71.8927 66.5771 71.5203C67.4969 71.4062 68.1504 70.5681 68.0365 69.6481C67.9221 68.728 67.0827 68.0741 66.1642 68.1889C59.0759 69.0678 51.9173 68.8513 44.7886 67.5605V58.4081L56.8623 61.3785C57.0713 61.43 57.2864 61.4557 57.5012 61.4557C57.7161 61.4557 57.9314 61.43 58.1402 61.3785L78.5219 56.3639V65.5676C76.7559 66.0982 74.9523 66.5706 73.1563 66.973C72.2517 67.1758 71.6828 68.0734 71.8854 68.9778C72.0602 69.7588 72.7533 70.2897 73.5218 70.2897C73.6433 70.2897 73.7668 70.2765 73.8901 70.2487C75.8531 69.809 77.825 69.2889 79.7512 68.7027C81.0237 68.3156 81.8786 67.2353 81.8786 66.0149V55.5379L88.2794 53.963C89.383 53.6915 90.124 52.7905 90.124 51.7212C90.124 50.6519 89.3825 49.7513 88.2794 49.4799L58.1411 42.0648C57.7219 41.9614 57.2792 41.9616 56.8618 42.0646L47.7643 44.3028C46.8641 44.5241 46.314 45.4334 46.5354 46.3337C46.7569 47.2336 47.6658 47.7842 48.5663 47.5626L57.501 45.3645L83.3387 51.7214L57.501 58.0784L31.6631 51.7214L41.4659 49.3096C42.366 49.088 42.9161 48.1789 42.6948 47.2786C42.4735 46.3787 41.5642 45.8284 40.6638 46.0497L26.7228 49.4799C25.6193 49.7511 24.8781 50.6519 24.8781 51.7212C24.8781 52.7905 25.6193 53.6913 26.7226 53.963L33.1234 55.5379V66.0149ZM45.2165 78.3746V81.113H41.0033V78.3746C41.0033 77.743 41.5172 77.2292 42.1485 77.2292H44.0711C44.7029 77.2292 45.2165 77.743 45.2165 78.3746ZM41.4315 66.8727C39.7783 66.4941 38.1273 66.0624 36.4804 65.5673V56.3637L41.4315 57.5818V66.8727Z" fill="white"/>
<path d="M113.324 55.8227H109.641C109.223 42.517 103.847 30.0688 94.3904 20.612C84.9338 11.1552 72.4853 5.77935 59.1797 5.36152V1.67848C59.1797 0.751512 58.4284 0 57.5012 0C56.574 0 55.8227 0.751512 55.8227 1.67848V5.36174C42.517 5.77957 30.0688 11.1554 20.612 20.6122C11.1552 30.069 5.77957 42.517 5.36174 55.8227H1.67848C0.751288 55.8227 0 56.5742 0 57.5012C0 58.4282 0.751288 59.1797 1.67848 59.1797H5.36152C5.77935 72.4853 11.1552 84.9336 20.6117 94.3904C30.0683 103.847 42.5168 109.223 55.8225 109.641V113.324C55.8225 114.251 56.5738 115.003 57.501 115.003C58.4282 115.003 59.1794 114.251 59.1794 113.324V109.641C72.4851 109.223 84.9334 103.847 94.3902 94.3902C103.847 84.9334 109.223 72.4851 109.64 59.1794H113.323C114.251 59.1794 115.002 58.4279 115.002 57.501C115.002 56.574 114.251 55.8227 113.324 55.8227ZM92.0168 22.9858C100.839 31.8083 105.865 43.414 106.282 55.8227H99.7944C98.9315 33.8147 81.1879 16.0709 59.1797 15.2082V8.72072C71.5883 9.1372 83.1943 14.1632 92.0168 22.9858ZM22.9858 22.9858C31.8083 14.1632 43.4142 9.1372 55.8229 8.72072V15.2082C33.8149 16.0709 16.0711 33.8147 15.2082 55.8227H8.72072C9.1372 43.414 14.1632 31.8083 22.9858 22.9858ZM22.9858 92.0166C14.1635 83.194 9.13743 71.5883 8.72072 59.1797H15.2073C15.6213 69.8653 19.9782 79.8496 27.5875 87.45C28.2432 88.105 29.3061 88.1044 29.9611 87.4486C30.6162 86.7927 30.6155 85.7299 29.9595 85.0748C22.9856 78.1089 18.9783 68.9679 18.5662 59.1797H21.009C21.9362 59.1797 22.6875 58.4282 22.6875 57.5012C22.6875 56.5742 21.9362 55.8227 21.009 55.8227H18.5671C19.4258 35.6659 35.6657 19.4258 55.8227 18.5671V21.0092C55.8227 21.9362 56.574 22.6877 57.5012 22.6877C58.4284 22.6877 59.1797 21.9362 59.1797 21.0092V18.5671C79.3367 19.4258 95.5765 35.6657 96.4352 55.8227H93.9934C93.0662 55.8227 92.3149 56.5742 92.3149 57.5012C92.3149 58.4282 93.0662 59.1797 93.9934 59.1797H96.4352C95.5765 79.3367 79.3367 95.5765 59.1797 96.4352V93.9932C59.1797 93.0662 58.4284 92.3147 57.5012 92.3147C56.574 92.3147 55.8227 93.0662 55.8227 93.9932V96.437C48.4087 96.1233 41.3182 93.7347 35.2215 89.4783C34.4615 88.9476 33.4152 89.1336 32.8846 89.8939C32.354 90.6539 32.5399 91.7003 33.2999 92.231C39.9633 96.8826 47.7179 99.482 55.8227 99.7976V106.282C43.414 105.865 31.8083 100.839 22.9858 92.0166ZM92.0168 92.0166C83.1943 100.839 71.5883 105.865 59.1797 106.282V99.7944C81.1877 98.9317 98.9315 81.1879 99.7944 59.1797H106.282C105.865 71.5883 100.839 83.194 92.0168 92.0166Z" fill="white"/>
</svg>
