<svg width="31" height="35" viewBox="0 0 31 35" fill="none" xmlns="http://www.w3.org/2000/svg">
<path d="M28.4905 12.1541L25.0597 10.9054C26.3001 9.88045 26.8298 8.25466 26.45 6.70973C25.7038 3.67437 22.0029 2.52211 19.6647 4.58909L17.2959 6.68307L16.8273 3.54264C16.364 0.450817 12.7845 -1.03668 10.2663 0.805602C9.00719 1.72675 8.3374 3.31467 8.63442 4.92699L5.39979 3.7497C3.80839 3.17036 2.04205 3.99395 1.4627 5.58556L0.0620171 9.43399C-0.131372 9.96535 0.142613 10.553 0.674039 10.7463C0.889576 10.8247 16.4474 16.4873 16.6759 16.5704C16.0284 16.5704 1.84852 16.5704 1.22467 16.5704C0.659205 16.5704 0.200787 17.0289 0.200787 17.5943V31.9285C0.200787 33.6221 1.57871 35.0001 3.27238 35.0001H11.4633H15.5588H23.7498C25.4434 35.0001 26.8214 33.6221 26.8214 31.9285V20.2631L27.6135 20.5515C28.1423 20.7441 28.7315 20.4731 28.9257 19.9395L30.3265 16.0911C30.9056 14.4995 30.0821 12.7334 28.4905 12.1541ZM10.4394 32.9524H3.27231C2.70773 32.9524 2.24842 32.493 2.24842 31.9285V18.6182H10.4394V32.9524ZM14.5349 32.9524H12.4872V18.6182H14.5349V32.9524ZM21.0209 6.12335C22.2086 5.07328 24.0837 5.66233 24.4615 7.19871C24.8643 8.83681 23.281 10.2572 21.6963 9.68132C20.3484 9.1907 19.7167 8.96081 18.367 8.46951L21.0209 6.12335ZM11.4753 2.4584C12.755 1.52228 14.5677 2.28189 14.8022 3.8463L15.3272 7.36305C14.9493 7.22551 12.3699 6.28659 11.9982 6.15137C10.4133 5.57422 10.114 3.45412 11.4753 2.4584ZM11.9576 12.674L2.33647 9.17218L3.38702 6.28591C3.58013 5.75537 4.16891 5.48097 4.69938 5.67395C5.77604 6.06579 13.0263 8.70467 13.3583 8.82553L11.9576 12.674ZM15.8061 14.0748L13.8819 13.3744L15.2826 9.526L17.2069 10.2264L15.8061 14.0748ZM24.7735 31.9285C24.7735 32.493 24.3142 32.9524 23.7496 32.9524H16.5826V18.6182H22.302L24.7736 19.5178V31.9285H24.7735ZM28.402 15.3906L27.3516 18.277L17.7304 14.7751L19.1311 10.9267L27.7902 14.0783C28.3207 14.2714 28.5952 14.8602 28.402 15.3906Z" fill="white"/>
</svg>
