<svg width="224" height="225" viewBox="0 0 224 225" fill="none" xmlns="http://www.w3.org/2000/svg">
<path d="M93.7886 28.2275C93.7886 28.2275 65.5611 0 32.7805 0C13.6587 0 6.3739 12.7479 6.3739 25.4958C6.3739 38.2436 14.1137 50.9915 28.2275 50.9915L93.7886 50.9915V28.2275Z" fill="#FBE77B"/>
<path d="M93.7886 28.2275C93.7886 28.2275 65.5611 0 32.7805 0C13.6587 0 6.3739 12.7479 6.3739 25.4958C6.3739 38.2436 14.1137 50.9915 28.2275 50.9915L93.7886 50.9915V28.2275Z" fill="#FBE77B"/>
<path d="M130.212 28.228C130.212 28.228 158.439 0.000488281 191.22 0.000488281C210.342 0.000488281 217.626 12.7484 217.626 25.4962C217.626 38.2441 209.887 50.992 195.773 50.992L130.212 50.992V28.228Z" fill="#FBE77B"/>
<path d="M215.25 87.4154L8.75 87.4154C3.91738 87.4154 0 83.498 0 78.6654L0 59.7427C0 54.91 3.91738 50.9927 8.75 50.9927L215.25 50.9927C220.083 50.9927 224 54.91 224 59.7427V78.6654C224 83.498 220.083 87.4154 215.25 87.4154Z" fill="#E64B52"/>
<path d="M84.683 50.9927L139.317 50.9927V87.4154H84.683V50.9927Z" fill="#FBE77B"/>
<path d="M203.413 224.001L20.5876 224.001C15.755 224.001 11.8376 220.084 11.8376 215.251L11.8376 87.416L212.163 87.416V215.251C212.163 220.084 208.245 224.001 203.413 224.001Z" fill="#E64B52"/>
<path d="M11.8376 87.416L212.163 87.416V98.343L11.8376 98.343V87.416Z" fill="#C43339"/>
<path d="M93.7886 87.415H130.211V224H93.7886L93.7886 87.415Z" fill="#FBE77B"/>
<path d="M93.7886 87.415H130.211V98.342H93.7886V87.415Z" fill="#FCDD2E"/>
<path d="M142.959 41.8857C141.063 41.8857 139.439 40.7263 138.754 39.0787C139.929 38.6473 141.196 38.2251 142.51 37.8546C144.307 37.3479 145.353 35.4807 144.847 33.6839C144.341 31.8871 142.473 30.8406 140.676 31.3472C139.901 31.5659 139.143 31.8 138.406 32.0424V21.1714C133.218 25.2209 130.211 28.2269 130.211 28.2269V50.9914L195.772 50.9914C203.374 50.9914 209.123 47.2901 212.813 41.8857L142.959 41.8857Z" fill="#FCDD2E"/>
<path d="M85.5933 21.1714V32.0424C84.857 31.8 84.0988 31.5659 83.3232 31.3472C81.5277 30.841 79.6591 31.8866 79.1525 33.6839C78.6463 35.4807 79.6919 37.3479 81.4892 37.8546C82.8008 38.2243 84.0682 38.6473 85.2447 39.0796C84.5595 40.7268 82.9355 41.8853 81.0403 41.8853L11.1864 41.8853C14.8767 47.2897 20.6255 50.9909 28.2275 50.9909L93.7886 50.9909V28.2269C93.7886 28.2269 90.7817 25.2209 85.5933 21.1714Z" fill="#FCDD2E"/>
<path d="M130.211 50.9914H93.7881V27.978C93.7881 24.5953 96.5303 21.853 99.9131 21.853L124.086 21.853C127.469 21.853 130.211 24.5953 130.211 27.978V50.9914Z" fill="#FBE77B"/>
<path d="M93.7885 41.8862L130.211 41.8862V50.9919H93.7885V41.8862Z" fill="#FCDD2E"/>
</svg>
