<svg width="211" height="211" viewBox="0 0 211 211" fill="none" xmlns="http://www.w3.org/2000/svg">
<path d="M76.8855 96.3978C81.8569 96.3978 85.887 92.449 85.887 87.5778C85.887 82.7067 81.8569 78.7578 76.8855 78.7578C71.9141 78.7578 67.884 82.7067 67.884 87.5778C67.884 92.449 71.9141 96.3978 76.8855 96.3978Z" fill="#E64B52"/>
<path d="M134.071 132.196C139.042 132.196 143.072 128.247 143.072 123.376C143.072 118.505 139.042 114.556 134.071 114.556C129.099 114.556 125.069 118.505 125.069 123.376C125.069 128.247 129.099 132.196 134.071 132.196Z" fill="#E64B52"/>
<path d="M208.289 117.152L205.024 112.785C201.494 108.029 201.406 101.587 204.892 96.7448L208.069 92.3348C212.922 85.5901 210.672 76.2081 203.215 72.2736L198.361 69.7227C193.066 66.9557 190.154 61.1621 191.169 55.3254L192.095 50.0074C193.507 41.8792 187.286 34.3562 178.858 34.0104L173.342 33.7942C167.341 33.5348 162.134 29.5571 160.458 23.8933L158.913 18.705C156.575 10.7497 147.661 6.64238 139.895 9.92827L134.821 12.0468C129.305 14.3815 122.863 12.998 118.848 8.58797L115.185 4.56709C109.582 -1.57233 99.7417 -1.5291 94.1819 4.74003L90.5637 8.80415C86.5924 13.2574 80.1943 14.7274 74.6346 12.4792L69.5161 10.4039C61.7059 7.24768 52.881 11.528 50.6306 19.4833L49.1745 24.7148C47.586 30.4218 42.4675 34.4859 36.4665 34.7886L30.9508 35.0912C22.523 35.5668 16.4337 43.1762 17.9781 51.3045L18.993 56.6224C20.0961 62.416 17.2721 68.2527 12.0212 71.1063L7.21159 73.7436C-0.157283 77.7645 -2.27528 87.1898 2.71084 93.8481L5.97609 98.2148C9.50609 102.971 9.59434 109.413 6.10847 114.255L2.93147 118.665C-1.92228 125.41 0.328092 134.792 7.78521 138.726L12.639 141.277C17.934 144.044 20.8462 149.838 19.8313 155.675L18.9047 160.993C17.4927 169.121 23.7143 176.644 32.1422 176.99L37.6578 177.206C43.6588 177.465 48.8656 181.443 50.5423 187.107L52.0867 192.295C54.4253 200.25 63.3386 204.358 71.1046 201.072L76.1789 198.953C81.6946 196.618 88.1368 198.002 92.1522 202.412L95.8146 206.433C101.463 212.572 111.302 212.529 116.818 206.26L120.436 202.196C124.408 197.743 130.806 196.273 136.365 198.521L141.484 200.596C149.294 203.752 158.119 199.472 160.369 191.517L161.826 186.285C163.414 180.578 168.533 176.514 174.534 176.211L180.049 175.909C188.477 175.433 194.566 167.824 193.022 159.695L192.007 154.378C190.904 148.584 193.728 142.747 198.979 139.894L203.788 137.256C211.157 133.279 213.275 123.853 208.289 117.152ZM55.1313 87.5789C55.1313 75.8189 64.8388 66.3072 76.8408 66.3072C88.8428 66.3072 98.5503 75.8189 98.5503 87.5789C98.5503 99.339 88.8428 108.851 76.8408 108.851C64.8388 108.851 55.1313 99.2957 55.1313 87.5789ZM81.0327 142.445C79.1794 144.65 75.8259 144.952 73.5756 143.136C71.3252 141.32 71.0163 138.035 72.8696 135.83L129.835 68.5986C131.688 66.3936 135.042 66.091 137.292 67.9069C139.542 69.7228 139.851 73.0086 137.998 75.2136L81.0327 142.445ZM134.071 144.65C122.069 144.65 112.361 135.138 112.361 123.378C112.361 111.618 122.069 102.106 134.071 102.106C146.073 102.106 155.78 111.618 155.78 123.378C155.78 135.138 146.073 144.65 134.071 144.65Z" fill="#E64B52"/>
</svg>
