<svg width="321" height="689" viewBox="0 0 321 689" fill="none" xmlns="http://www.w3.org/2000/svg">
<path d="M321 546.433C321 639.464 235.052 683.413 190.5 687.502C190.5 687.502 175.5 690.002 169 687.502C157.5 684 187.916 677.539 187.916 677.539C227.327 668.089 307.292 630.774 307.292 546.433C307.292 460.047 226.454 417.109 161.071 417.109C45.0085 417.109 1.47779e-05 328.531 1.25225e-05 276.935C8.14997e-06 176.902 98.242 128.465 161.071 128.465C251.317 128.465 305.836 62.1277 306.721 0.00213685L321 0.00213623C321 68.4456 258.171 142.154 161.071 142.154C81.1068 142.154 14.2794 203.226 14.2794 276.935C18.2776 360.37 93.6726 405.262 161.071 404.33C235.603 404.33 321 451.357 321 546.433Z" fill="url(#paint0_linear)"/>
<defs>
<linearGradient id="paint0_linear" x1="159.345" y1="687" x2="159.345" y2="2.11039e-05" gradientUnits="userSpaceOnUse">
<stop stop-color="#FFFCFD"/>
<stop offset="1" stop-color="#F3A3A7"/>
</linearGradient>
</defs>
</svg>
