<?xml version="1.0" encoding="utf-8"?>
<!-- Generator: Adobe Illustrator 18.1.1, SVG Export Plug-In . SVG Version: 6.00 Build 0)  -->
<svg version="1.1" id="Layer_1" xmlns="http://www.w3.org/2000/svg" xmlns:xlink="http://www.w3.org/1999/xlink" x="0px" y="0px"
	 viewBox="-212 338 230 326.8" style="enable-background:new -212 338 230 326.8;" xml:space="preserve">
<style type="text/css">
	.st0{fill:#C9E2FF;}
</style>
<path class="st0" d="M18,487.1V338h-230v149.1c0,109.3,115,177.7,115,177.7S18,596.4,18,487.1L18,487.1z M-97,651.4
	c-17.2-11.2-103.3-71.4-103.3-164.3V349.7H6.3v137.4C6.3,580-79.8,640.2-97,651.4L-97,651.4z"/>
<path class="st0" d="M-87.2,600.2h10c-1,11.1-9.2,16.3-19,16.3c-2.7,0.1-5.5-0.3-8-1.3c-2.6-1-4.9-2.5-6.8-4.5
	c-1.9-2-3.4-4.3-4.4-6.9c-1-2.6-1.4-5.3-1.2-8.1c0-13.6,8.9-21.7,20.6-21.7c10.3,0,17.7,5.2,18.7,15.8h-10.4c0-1-0.3-2-0.7-2.9
	c-0.4-0.9-1.1-1.7-1.8-2.4c-0.8-0.7-1.7-1.1-2.6-1.4c-1-0.3-2-0.4-3-0.3c-5.8,0-9.5,4.4-9.5,12.2c0,9.2,3.5,13,9.7,13
	c1.1,0.1,2.2-0.1,3.2-0.5c1-0.4,2-0.9,2.8-1.7c0.8-0.7,1.4-1.6,1.9-2.6C-87.4,602.4-87.1,601.3-87.2,600.2L-87.2,600.2z"/>
<path class="st0" d="M-35.9,461.9c-11.7,0-21.4,7.7-26.9,13.6h-20.2l22.9-22.9c8,0.2,20.2-1.2,28.4-9.5c13.2-12.9,8.9-36.1,8.9-36.1
	s-22.9-4.2-36.1,8.9c-8.1,8-9.5,20.4-9.5,28.4l-22.9,23v-38c5.4-5.4,13.6-15.2,13.6-26.9c0-18.4-19.4-31.6-19.4-31.6
	s-19.2,13.2-19.2,31.4c0,11.7,7.7,21.4,13.6,26.9v38l-22.9-22.9c0-8-1.2-20.4-9.5-28.4c-13.2-13.2-36.1-8.9-36.1-8.9
	s-4.2,23.2,8.7,36.1c8.1,8.1,20.7,9.7,28.6,9.5l22.7,23.1h-20.2c-5.7-5.7-15.4-13.6-26.9-13.6c-18.7,0-31.9,19.4-31.9,19.4
	s13.6,19.2,31.9,19.2c11.7,0,21.4-7.7,26.9-13.6h26.4l-5.7,39.6c-0.4,3.5-1.7,6.7-3.8,9.5c-2.1,2.8-4.9,4.9-8.2,6.2h-7.2v11.9h65.5
	v-11.7h-7.5c-3.2-1.3-6.1-3.4-8.2-6.2c-2.1-2.8-3.4-6.1-3.8-9.5l-5.7-39.6h26.6c5.4,5.7,14.9,13.6,26.9,13.6
	c17.9,0,31.9-19.2,31.9-19.2S-17.7,461.9-35.9,461.9z M-50.6,424c4.5-4.7,12-6,16.9-6.2c-0.2,5-1.5,12.4-6.2,16.9
	c-4.7,4.5-12,6-16.9,6.2c0.2-4.7,1.5-12.2,6.2-16.7V424z M-154.4,434.8c-4.5-4.5-5.7-12-6-16.9c5,0.2,12.2,1.5,16.9,6.2
	s5.7,12,6,16.9C-142.4,440.9-149.7,439.6-154.4,434.8z M-158.1,489c-6.5,0-12.7-4.2-16.3-7.5c4.3-4.5,10.1-7.3,16.3-7.7
	c6.5,0,12.4,4.2,16.3,7.5C-145.7,484.7-151.6,489-158.1,489z M-104.8,402.3c0-6.5,4.5-12.4,7.7-16.3c3.5,3.7,7.7,9.7,7.7,16.3
	c0,6.6-4.2,12.7-7.7,16.4C-100.4,415-104.8,408.8-104.8,402.3z M-97.3,542.4h-7.5c5.2-7.7,5.2-14.2,6.7-27.4h1.7
	c1.5,13.2,1.2,19.7,6.7,27.4H-97.3z M-35.9,489c-6.2-0.5-12-3.2-16.3-7.7c3.5-3.2,9.7-7.5,16.3-7.5c6.6,0,12.4,4.2,16.3,7.7
	C-23.5,484.7-29.5,489-35.9,489z"/>
</svg>
