<svg width="45" height="45" viewBox="0 0 45 45" fill="none" xmlns="http://www.w3.org/2000/svg">
<path d="M44.7549 6.53044C44.6355 6.20848 44.3393 5.98561 43.9968 5.96005L39.2076 5.60181L38.8494 0.812982C38.8238 0.470553 38.6011 0.17442 38.2791 0.0549472C37.957 -0.064613 37.595 0.0145375 37.3522 0.257348L33.5242 4.0853C32.89 4.71929 32.5229 5.56192 32.4901 6.45806C32.4895 6.47396 32.4893 6.48986 32.4897 6.50576L32.5419 9.4388C29.1083 6.66221 24.7406 4.99733 19.9911 4.99733C8.96783 4.99733 -0.000244141 13.965 -0.000244141 24.9877C-0.000244141 36.0104 8.96783 44.9781 19.9911 44.9781C31.0144 44.9781 39.9824 36.0104 39.9824 24.9877C39.9824 20.1622 38.2636 15.7307 35.4063 12.2729L38.3053 12.3198C38.31 12.3198 38.3147 12.3198 38.3194 12.3198C38.3301 12.3198 38.3408 12.3197 38.3516 12.3192C39.2475 12.2865 40.0902 11.9193 40.7243 11.2852L44.5524 7.45723C44.7953 7.21442 44.8743 6.85231 44.7549 6.53044ZM34.7665 5.32763L37.2403 2.85394L37.4821 6.08549L34.2961 9.27646L34.2468 6.50066C34.2682 6.05756 34.4523 5.64178 34.7665 5.32763ZM19.9911 43.221C9.93662 43.221 1.7567 35.0415 1.7567 24.9875C1.7567 14.9336 9.93653 6.7541 19.9911 6.7541C24.6618 6.7541 28.9277 8.51939 32.1573 11.4176L30.1226 13.4521C27.4165 11.0726 23.8694 9.62776 19.9911 9.62776C18.2047 9.62776 16.4532 9.9333 14.7851 10.5358C14.3288 10.7006 14.0925 11.2042 14.2573 11.6606C14.4222 12.1168 14.9254 12.3534 15.382 12.1883C16.8581 11.6551 18.4088 11.3847 19.9911 11.3847C23.3849 11.3847 26.4924 12.634 28.878 14.6966L26.84 16.7346C24.9805 15.1889 22.5924 14.2583 19.9911 14.2583C14.0747 14.2583 9.26133 19.0714 9.26133 24.9875C9.26133 30.9036 14.0747 35.7168 19.9911 35.7168C21.682 35.7168 23.3679 35.3113 24.8664 34.5441C25.2982 34.323 25.469 33.7937 25.248 33.3618C25.0269 32.9299 24.4974 32.7593 24.0656 32.9802C22.796 33.6303 21.425 33.9599 19.9911 33.9599C15.0435 33.9599 11.0183 29.935 11.0183 24.9876C11.0183 20.0402 15.0434 16.0153 19.9911 16.0153C22.1079 16.0153 24.0555 16.7525 25.5916 17.9831L23.5422 20.0323C22.5414 19.3131 21.315 18.8889 19.9912 18.8889C16.6282 18.8889 13.8922 21.6247 13.8922 24.9875C13.8922 28.3503 16.6282 31.0862 19.9912 31.0862C23.3541 31.0862 26.0901 28.3503 26.0901 24.9875C26.0901 23.5809 25.6111 22.2841 24.808 21.2512L26.8498 19.2095C28.168 20.7717 28.9639 22.7883 28.9639 24.9874C28.9639 25.9523 28.8111 26.9018 28.5094 27.8095C28.3565 28.2699 28.6058 28.7672 29.0662 28.9202C29.5262 29.073 30.0238 28.824 30.1768 28.3635C30.5378 27.2767 30.7209 26.1409 30.7209 24.9874C30.7209 22.3037 29.7304 19.847 28.0958 17.9636L30.1309 15.9286C32.284 18.3358 33.5948 21.5114 33.5948 24.9874C33.5948 32.488 27.4922 38.5903 19.9913 38.5903C12.4903 38.5903 6.38749 32.4881 6.38749 24.9875C6.38749 22.0895 7.29039 19.3215 8.99858 16.9828C9.28479 16.591 9.19914 16.0414 8.80734 15.7553C8.41554 15.4692 7.86596 15.5547 7.57976 15.9465C5.65045 18.5882 4.63054 21.7145 4.63054 24.9875C4.63054 33.457 11.5213 40.3473 19.991 40.3473C28.4608 40.3473 35.3515 33.4569 35.3515 24.9875C35.3515 21.027 33.8446 17.412 31.3742 14.6852L33.4072 12.6523C36.397 15.9012 38.2252 20.2348 38.2252 24.9876C38.2254 35.0415 30.0455 43.221 19.9911 43.221ZM24.333 24.9875C24.333 27.3815 22.3852 29.3292 19.991 29.3292C17.5968 29.3292 15.649 27.3815 15.649 24.9875C15.649 22.5935 17.5968 20.6458 19.991 20.6458C20.8291 20.6458 21.6123 20.8848 22.2766 21.2977L19.4746 24.0996C19.1315 24.4426 19.1315 24.9989 19.4746 25.3419C19.6461 25.5135 19.8709 25.5992 20.0957 25.5992C20.3205 25.5992 20.5453 25.5134 20.7169 25.3419L23.5523 22.5067C24.044 23.2105 24.333 24.0658 24.333 24.9875ZM39.4821 10.0428C39.1678 10.3571 38.7515 10.5411 38.3082 10.5625L35.5419 10.5177L37.2296 8.8302C37.2484 8.8114 37.2659 8.79181 37.2827 8.77187L38.7248 7.32748L41.9558 7.56924L39.4821 10.0428Z" fill="white"/>
</svg>
