<svg width="1165" height="848" viewBox="0 0 1165 848" fill="none" xmlns="http://www.w3.org/2000/svg">
<path d="M248.391 27C101.871 27 33.4405 139.367 27 197.797L41.9043 201.543C56.7872 149.854 115.557 44.9786 248.391 44.9786C384.446 44.9786 452.071 151 452.071 236.751C452.071 388.97 591.58 448 672.841 448C830.389 448 906.675 319.153 906.675 236.751C906.675 118.391 1011.15 46.8881 1109 45.7278V27C1001.2 27 885.116 109.402 885.116 236.751C885.116 341.626 788.929 429.272 672.841 429.272C541.433 424.028 470.731 325.146 472.198 236.751C472.198 139 398.132 27 248.391 27Z" fill="url(#paint0_linear)"/>
<path d="M248.391 427C101.871 427 33.4405 539.367 27 597.797L41.9043 601.543C56.7872 549.854 115.557 444.979 248.391 444.979C384.446 444.979 452.071 551 452.071 636.751C452.071 788.97 591.58 848 672.841 848C830.389 848 906.675 719.153 906.675 636.751C906.675 518.391 1011.15 446.888 1109 445.728V427C1001.2 427 885.116 509.402 885.116 636.751C885.116 741.626 788.929 829.272 672.841 829.272C541.433 824.028 470.731 725.146 472.198 636.751C472.198 539 398.132 427 248.391 427Z" fill="url(#paint1_linear)"/>
<circle cx="1128" cy="434" r="37" fill="#FFFAFB"/>
<circle cx="1128" cy="37" r="37" fill="#F2A2A5"/>
<circle cx="37" cy="593" r="37" fill="#F4A5A9"/>
<defs>
<linearGradient id="paint0_linear" x1="27" y1="239.015" x2="1109" y2="239.015" gradientUnits="userSpaceOnUse">
<stop stop-color="#E64C52"/>
<stop offset="1" stop-color="#F2A3A6"/>
</linearGradient>
<linearGradient id="paint1_linear" x1="27" y1="639.015" x2="1109" y2="639.015" gradientUnits="userSpaceOnUse">
<stop stop-color="#F3A3A7"/>
<stop offset="1" stop-color="#FFFCFD"/>
</linearGradient>
</defs>
</svg>
